  0
SECTION
  2
HEADER
  9
$ACADVER
  1
AC1018
  9
$ACADMAINTVER
 70
    39
  9
$DWGCODEPAGE
  3
ANSI_1250
  9
$INSBASE
 10
0.0
 20
0.0
 30
0.0
  9
$EXTMIN
 10
1.000000000000000E+20
 20
1.000000000000000E+20
 30
1.000000000000000E+20
  9
$EXTMAX
 10
-1.000000000000000E+20
 20
-1.000000000000000E+20
 30
-1.000000000000000E+20
  9
$LIMMIN
 10
0.0
 20
0.0
  9
$LIMMAX
 10
12.0
 20
9.0
  9
$ORTHOMODE
 70
     0
  9
$REGENMODE
 70
     1
  9
$FILLMODE
 70
     1
  9
$QTEXTMODE
 70
     0
  9
$MIRRTEXT
 70
     1
  9
$LTSCALE
 40
1.0
  9
$ATTMODE
 70
     1
  9
$TEXTSIZE
 40
0.2
  9
$TRACEWID
 40
0.05
  9
$TEXTSTYLE
  7
STANDARD
  9
$CLAYER
  8
0
  9
$CELTYPE
  6
BYLAYER
  9
$CECOLOR
 62
   256
  9
$CELTSCALE
 40
1.0
  9
$DISPSILH
 70
     0
  9
$DIMSCALE
 40
1.0
  9
$DIMASZ
 40
0.18
  9
$DIMEXO
 40
0.0625
  9
$DIMDLI
 40
0.38
  9
$DIMRND
 40
0.0
  9
$DIMDLE
 40
0.0
  9
$DIMEXE
 40
0.18
  9
$DIMTP
 40
0.0
  9
$DIMTM
 40
0.0
  9
$DIMTXT
 40
0.18
  9
$DIMCEN
 40
0.09
  9
$DIMTSZ
 40
0.0
  9
$DIMTOL
 70
     0
  9
$DIMLIM
 70
     0
  9
$DIMTIH
 70
     1
  9
$DIMTOH
 70
     1
  9
$DIMSE1
 70
     0
  9
$DIMSE2
 70
     0
  9
$DIMTAD
 70
     0
  9
$DIMZIN
 70
     0
  9
$DIMBLK
  1

  9
$DIMASO
 70
     1
  9
$DIMSHO
 70
     1
  9
$DIMPOST
  1

  9
$DIMAPOST
  1

  9
$DIMALT
 70
     0
  9
$DIMALTD
 70
     2
  9
$DIMALTF
 40
25.4
  9
$DIMLFAC
 40
1.0
  9
$DIMTOFL
 70
     0
  9
$DIMTVP
 40
0.0
  9
$DIMTIX
 70
     0
  9
$DIMSOXD
 70
     0
  9
$DIMSAH
 70
     0
  9
$DIMBLK1
  1

  9
$DIMBLK2
  1

  9
$DIMSTYLE
  2
STANDARD
  9
$DIMCLRD
 70
     0
  9
$DIMCLRE
 70
     0
  9
$DIMCLRT
 70
     0
  9
$DIMTFAC
 40
1.0
  9
$DIMGAP
 40
0.09
  9
$DIMJUST
 70
     0
  9
$DIMSD1
 70
     0
  9
$DIMSD2
 70
     0
  9
$DIMTOLJ
 70
     1
  9
$DIMTZIN
 70
     0
  9
$DIMALTZ
 70
     0
  9
$DIMALTTZ
 70
     0
  9
$DIMUPT
 70
     0
  9
$DIMDEC
 70
     4
  9
$DIMTDEC
 70
     4
  9
$DIMALTU
 70
     2
  9
$DIMALTTD
 70
     2
  9
$DIMTXSTY
  7
STANDARD
  9
$DIMAUNIT
 70
     0
  9
$DIMADEC
 70
     0
  9
$DIMALTRND
 40
0.0
  9
$DIMAZIN
 70
     0
  9
$DIMDSEP
 70
    46
  9
$DIMATFIT
 70
     3
  9
$DIMFRAC
 70
     0
  9
$DIMLDRBLK
  1

  9
$DIMLUNIT
 70
     2
  9
$DIMLWD
 70
    -2
  9
$DIMLWE
 70
    -2
  9
$DIMTMOVE
 70
     0
  9
$LUNITS
 70
     2
  9
$LUPREC
 70
     2
  9
$SKETCHINC
 40
0.1
  9
$FILLETRAD
 40
0.5
  9
$AUNITS
 70
     2
  9
$AUPREC
 70
     4
  9
$MENU
  1
.
  9
$ELEVATION
 40
0.0
  9
$PELEVATION
 40
0.0
  9
$THICKNESS
 40
0.0
  9
$LIMCHECK
 70
     0
  9
$CHAMFERA
 40
0.5
  9
$CHAMFERB
 40
0.5
  9
$CHAMFERC
 40
1.0
  9
$CHAMFERD
 40
0.0
  9
$SKPOLY
 70
     1
  9
$TDCREATE
 40
2455758.307354236
  9
$TDUCREATE
 40
2455758.224020903
  9
$TDUPDATE
 40
2455758.307541018
  9
$TDUUPDATE
 40
2455758.224207685
  9
$TDINDWG
 40
0.0001876852
  9
$TDUSRTIMER
 40
0.0001876620
  9
$USRTIMER
 70
     1
  9
$ANGBASE
 50
90.0
  9
$ANGDIR
 70
     1
  9
$PDMODE
 70
     0
  9
$PDSIZE
 40
0.75
  9
$PLINEWID
 40
0.0
  9
$SPLFRAME
 70
     0
  9
$SPLINETYPE
 70
     5
  9
$SPLINESEGS
 70
     8
  9
$HANDSEED
  5
30DE9
  9
$SURFTAB1
 70
     6
  9
$SURFTAB2
 70
     6
  9
$SURFTYPE
 70
     6
  9
$SURFU
 70
     6
  9
$SURFV
 70
     6
  9
$UCSBASE
  2

  9
$UCSNAME
  2

  9
$UCSORG
 10
0.0
 20
0.0
 30
0.0
  9
$UCSXDIR
 10
1.0
 20
0.0
 30
0.0
  9
$UCSYDIR
 10
0.0
 20
1.0
 30
0.0
  9
$UCSORTHOREF
  2

  9
$UCSORTHOVIEW
 70
     0
  9
$UCSORGTOP
 10
0.0
 20
0.0
 30
0.0
  9
$UCSORGBOTTOM
 10
0.0
 20
0.0
 30
0.0
  9
$UCSORGLEFT
 10
0.0
 20
0.0
 30
0.0
  9
$UCSORGRIGHT
 10
0.0
 20
0.0
 30
0.0
  9
$UCSORGFRONT
 10
0.0
 20
0.0
 30
0.0
  9
$UCSORGBACK
 10
0.0
 20
0.0
 30
0.0
  9
$PUCSBASE
  2

  9
$PUCSNAME
  2

  9
$PUCSORG
 10
0.0
 20
0.0
 30
0.0
  9
$PUCSXDIR
 10
1.0
 20
0.0
 30
0.0
  9
$PUCSYDIR
 10
0.0
 20
1.0
 30
0.0
  9
$PUCSORTHOREF
  2

  9
$PUCSORTHOVIEW
 70
     0
  9
$PUCSORGTOP
 10
0.0
 20
0.0
 30
0.0
  9
$PUCSORGBOTTOM
 10
0.0
 20
0.0
 30
0.0
  9
$PUCSORGLEFT
 10
0.0
 20
0.0
 30
0.0
  9
$PUCSORGRIGHT
 10
0.0
 20
0.0
 30
0.0
  9
$PUCSORGFRONT
 10
0.0
 20
0.0
 30
0.0
  9
$PUCSORGBACK
 10
0.0
 20
0.0
 30
0.0
  9
$USERI1
 70
     1
  9
$USERI2
 70
     0
  9
$USERI3
 70
     0
  9
$USERI4
 70
     0
  9
$USERI5
 70
     0
  9
$USERR1
 40
0.0
  9
$USERR2
 40
0.0
  9
$USERR3
 40
0.0
  9
$USERR4
 40
0.0
  9
$USERR5
 40
0.0
  9
$WORLDVIEW
 70
     1
  9
$SHADEDGE
 70
     3
  9
$SHADEDIF
 70
    70
  9
$TILEMODE
 70
     1
  9
$MAXACTVP
 70
    48
  9
$PINSBASE
 10
0.0
 20
0.0
 30
0.0
  9
$PLIMCHECK
 70
     0
  9
$PEXTMIN
 10
8.882023100076139
 20
11.51890039730071
 30
0.0
  9
$PEXTMAX
 10
267.9620426694731
 20
179.1589053182602
 30
0.0
  9
$PLIMMIN
 10
-8.938984843273601
 20
5.705679202530063
  9
$PLIMMAX
 10
1180.061015156726
 20
846.7056792025299
  9
$UNITMODE
 70
     0
  9
$VISRETAIN
 70
     1
  9
$PLINEGEN
 70
     0
  9
$PSLTSCALE
 70
     0
  9
$TREEDEPTH
 70
  3020
  9
$CMLSTYLE
  2
STANDARD
  9
$CMLJUST
 70
     0
  9
$CMLSCALE
 40
1.0
  9
$PROXYGRAPHICS
 70
     1
  9
$MEASUREMENT
 70
     1
  9
$CELWEIGHT
370
    -1
  9
$ENDCAPS
280
     0
  9
$JOINSTYLE
280
     0
  9
$LWDISPLAY
290
     0
  9
$INSUNITS
 70
     0
  9
$HYPERLINKBASE
  1

  9
$STYLESHEET
  1
acad.ctb
  9
$XEDIT
290
     1
  9
$CEPSNTYPE
380
     0
  9
$PSTYLEMODE
290
     1
  9
$FINGERPRINTGUID
  2
{26554814-4D7D-4D6D-B7A7-FFC64486FC94}
  9
$VERSIONGUID
  2
{DFA04C24-24EA-45F7-9D38-D5DD0CB01503}
  9
$EXTNAMES
290
     1
  9
$PSVPSCALE
 40
0.0
  9
$OLESTARTUP
290
     0
  9
$SORTENTS
280
   127
  9
$INDEXCTL
280
     0
  9
$HIDETEXT
280
     0
  9
$XCLIPFRAME
290
     0
  9
$HALOGAP
280
     0
  9
$OBSCOLOR
 70
   257
  9
$OBSLTYPE
280
     0
  9
$INTERSECTIONDISPLAY
280
     0
  9
$INTERSECTIONCOLOR
 70
   257
  9
$DIMASSOC
280
     1
  9
$PROJECTNAME
  1

  0
ENDSEC
  0
SECTION
  2
TABLES
  0
TABLE
  2
VPORT
  5
8
330
0
100
AcDbSymbolTable
 70
     3
  0
VPORT
  5
210
330
8
100
AcDbSymbolTableRecord
100
AcDbViewportTableRecord
  2
*Active
 70
     0
 10
0.0
 20
0.0
 11
1.0
 21
1.0
 12
15.66346383368579
 22
7.859837438420162
 13
0.0
 23
0.0
 14
0.5
 24
0.5
 15
0.5
 25
0.5
 16
0.0
 26
0.0
 36
1.0
 17
0.0
 27
0.0
 37
0.0
 40
14.97747937474002
 41
1.935010482180293
 42
50.0
 43
0.0
 44
0.0
 50
0.0
 51
0.0
 71
     0
 72
   100
 73
     1
 74
     0
 75
     0
 76
     0
 77
     0
 78
     0
281
     0
 65
     1
110
0.0
120
0.0
130
0.0
111
1.0
121
0.0
131
0.0
112
0.0
122
1.0
132
0.0
 79
     0
146
0.0
  0
ENDTAB
  0
TABLE
  2
LTYPE
  5
5
330
0
100
AcDbSymbolTable
 70
     3
  0
LTYPE
  5
13
330
5
100
AcDbSymbolTableRecord
100
AcDbLinetypeTableRecord
  2
BYBLOCK
 70
     0
  3

 72
    65
 73
     0
 40
0.0
  0
LTYPE
  5
14
330
5
100
AcDbSymbolTableRecord
100
AcDbLinetypeTableRecord
  2
BYLAYER
 70
     0
  3

 72
    65
 73
     0
 40
0.0
  0
LTYPE
  5
15
330
5
100
AcDbSymbolTableRecord
100
AcDbLinetypeTableRecord
  2
CONTINUOUS
 70
     0
  3
Solid line
 72
    65
 73
     0
 40
0.0
  0
LTYPE
  5
213
330
5
100
AcDbSymbolTableRecord
100
AcDbLinetypeTableRecord
  2
PRZER4-1
 70
     0
  3

 72
    65
 73
     2
 40
5.000000
 49
4.000000
 74
     0
 49
-1.000000
 74
     0
  0
LTYPE
  5
214
330
5
100
AcDbSymbolTableRecord
100
AcDbLinetypeTableRecord
  2
PRZER3-1
 70
     0
  3

 72
    65
 73
     2
 40
4.000000
 49
3.000000
 74
     0
 49
-1.000000
 74
     0
  0
ENDTAB
  0
TABLE
  2
LAYER
  5
2
102
{ACAD_XDICTIONARY
360
1C7
102
}
330
0
100
AcDbSymbolTable
 70
     2
  0
LAYER
  5
215
330
2
100
AcDbSymbolTableRecord
100
AcDbLayerTableRecord
  2
SUSM
 70
     0
 62
   250
420
   657673
  6
CONTINUOUS
370
    18
390
8C
  0
LAYER
  5
216
330
2
100
AcDbSymbolTableRecord
100
AcDbLayerTableRecord
  2
EGBP04
 70
     0
 62
    94
420
    32768
  6
CONTINUOUS
370
    18
390
8C
  0
LAYER
  5
217
330
2
100
AcDbSymbolTableRecord
100
AcDbLayerTableRecord
  2
SUPE04
 70
     0
 62
     1
420
 16711680
  6
PRZER4-1
370
    18
390
8C
  0
LAYER
  5
218
330
2
100
AcDbSymbolTableRecord
100
AcDbLayerTableRecord
  2
SUPE04_O
 70
     0
 62
     1
420
 16711680
  6
CONTINUOUS
370
     0
390
8C
  0
LAYER
  5
219
330
2
100
AcDbSymbolTableRecord
100
AcDbLayerTableRecord
  2
SUPT01
 70
     0
 62
    30
420
 16748800
  6
CONTINUOUS
370
    18
390
8C
  0
LAYER
  5
21A
330
2
100
AcDbSymbolTableRecord
100
AcDbLayerTableRecord
  2
SUPT01_O
 70
     0
 62
    30
420
 16748800
  6
CONTINUOUS
370
     0
390
8C
  0
LAYER
  5
21B
330
2
100
AcDbSymbolTableRecord
100
AcDbLayerTableRecord
  2
SUPE03
 70
     0
 62
     1
420
 16711680
  6
CONTINUOUS
370
    18
390
8C
  0
LAYER
  5
21C
330
2
100
AcDbSymbolTableRecord
100
AcDbLayerTableRecord
  2
SUPE03_O
 70
     0
 62
     1
420
 16711680
  6
CONTINUOUS
370
     0
390
8C
  0
LAYER
  5
21D
330
2
100
AcDbSymbolTableRecord
100
AcDbLayerTableRecord
  2
SUPW01
 70
     0
 62
     5
420
      255
  6
CONTINUOUS
370
    18
390
8C
  0
LAYER
  5
21E
330
2
100
AcDbSymbolTableRecord
100
AcDbLayerTableRecord
  2
SUPW01_O
 70
     0
 62
     5
420
      255
  6
CONTINUOUS
370
     0
390
8C
  0
LAYER
  5
21F
330
2
100
AcDbSymbolTableRecord
100
AcDbLayerTableRecord
  2
SUPE02
 70
     0
 62
     1
420
 16711680
  6
CONTINUOUS
370
    18
390
8C
  0
LAYER
  5
220
330
2
100
AcDbSymbolTableRecord
100
AcDbLayerTableRecord
  2
SUPE02_O
 70
     0
 62
     1
420
 16711680
  6
CONTINUOUS
370
     0
390
8C
  0
LAYER
  5
221
330
2
100
AcDbSymbolTableRecord
100
AcDbLayerTableRecord
  2
EGBD03
 70
     0
 62
    94
420
    32768
  6
CONTINUOUS
370
    18
390
8C
  0
LAYER
  5
222
330
2
100
AcDbSymbolTableRecord
100
AcDbLayerTableRecord
  2
EGBD03_O
 70
     0
 62
    94
420
    32768
  6
CONTINUOUS
370
     0
390
8C
  0
LAYER
  5
223
330
2
100
AcDbSymbolTableRecord
100
AcDbLayerTableRecord
  2
GESKLU
 70
     0
 62
    94
420
    32768
  6
PRZER3-1
370
    18
390
8C
  0
LAYER
  5
224
330
2
100
AcDbSymbolTableRecord
100
AcDbLayerTableRecord
  2
GESKLU_O
 70
     0
 62
    94
420
    32768
  6
CONTINUOUS
370
     0
390
8C
  0
LAYER
  5
225
330
2
100
AcDbSymbolTableRecord
100
AcDbLayerTableRecord
  2
GESJPO_O
 70
     0
 62
   250
420
   657673
  6
CONTINUOUS
370
     0
390
8C
  0
LAYER
  5
226
330
2
100
AcDbSymbolTableRecord
100
AcDbLayerTableRecord
  2
EGBJ01_O
 70
     0
 62
    94
420
    32768
  6
CONTINUOUS
370
     0
390
8C
  0
LAYER
  5
227
330
2
100
AcDbSymbolTableRecord
100
AcDbLayerTableRecord
  2
EGBP12_02
 70
     0
 62
   250
420
   657673
  6
CONTINUOUS
370
    18
390
8C
  0
LAYER
  5
228
330
2
100
AcDbSymbolTableRecord
100
AcDbLayerTableRecord
  2
EGBO02_O
 70
     0
 62
    94
420
    32768
  6
CONTINUOUS
370
     0
390
8C
  0
LAYER
  5
229
330
2
100
AcDbSymbolTableRecord
100
AcDbLayerTableRecord
  2
GESJAE_O
 70
     0
 62
    94
420
    32768
  6
CONTINUOUS
370
     0
390
8C
  0
LAYER
  5
22A
330
2
100
AcDbSymbolTableRecord
100
AcDbLayerTableRecord
  2
0
 70
     0
 62
     7
  6
CONTINUOUS
370
    13
390
8C
  0
ENDTAB
  0
TABLE
  2
STYLE
  5
3
330
0
100
AcDbSymbolTable
 70
     2
  0
STYLE
  5
10
330
3
100
AcDbSymbolTableRecord
100
AcDbTextStyleTableRecord
  2
STANDARD
 70
     0
 40
0.0
 41
1.0
 50
0.0
 71
     0
 42
0.2
  3
txt
  4

  0
STYLE
  5
AC
330
3
100
AcDbSymbolTableRecord
100
AcDbTextStyleTableRecord
  2

 70
     1
 40
0.0
 41
1.0
 50
0.0
 71
     0
 42
0.2
  3
ltypeshp.shx
  4

  0
STYLE
  5
22B
330
3
100
AcDbSymbolTableRecord
100
AcDbTextStyleTableRecord
  2
GEO-INFO
 70
     0
 40
0.0
 41
1.0
 50
0.0
 71
     0
 42
0.2
  3
Arial
  4

1001
ACAD
1000
Arial
1071
       34
  0
ENDTAB
  0
TABLE
  2
VIEW
  5
6
330
0
100
AcDbSymbolTable
 70
     0
  0
ENDTAB
  0
TABLE
  2
UCS
  5
7
330
0
100
AcDbSymbolTable
 70
     1
  0
UCS
  5
94
330
7
100
AcDbSymbolTableRecord
100
AcDbUCSTableRecord
  2
GEO-INFO
 70
     0
 10
0.0
 20
0.0
 30
0.0
 11
0.0
 21
1.0
 31
0.0
 12
1.0
 22
0.0
 32
0.0
 79
     0
146
0.0
  0
ENDTAB
  0
TABLE
  2
APPID
  5
9
330
0
100
AcDbSymbolTable
 70
     3
  0
APPID
  5
11
330
9
100
AcDbSymbolTableRecord
100
AcDbRegAppTableRecord
  2
ACAD
 70
     0
  0
APPID
  5
4C
330
9
100
AcDbSymbolTableRecord
100
AcDbRegAppTableRecord
  2
GEO-INFO
 70
     0
  0
APPID
  5
1C3
330
9
100
AcDbSymbolTableRecord
100
AcDbRegAppTableRecord
  2
ACAD_PSEXT
 70
     0
  0
ENDTAB
  0
TABLE
  2
DIMSTYLE
  5
A
330
0
100
AcDbSymbolTable
 70
     1
100
AcDbDimStyleTable
 71
     1
340
1D
  0
DIMSTYLE
105
1D
330
A
100
AcDbSymbolTableRecord
100
AcDbDimStyleTableRecord
  2
STANDARD
 70
     0
340
10
  0
ENDTAB
  0
TABLE
  2
BLOCK_RECORD
  5
1
330
0
100
AcDbSymbolTable
 70
     0
  0
BLOCK_RECORD
  5
19
330
1
100
AcDbSymbolTableRecord
100
AcDbBlockTableRecord
  2
*MODEL_SPACE
340
8F
  0
BLOCK_RECORD
  5
16
330
1
100
AcDbSymbolTableRecord
100
AcDbBlockTableRecord
  2
*PAPER_SPACE
340
90
  0
BLOCK_RECORD
  5
22C
330
1
100
AcDbSymbolTableRecord
100
AcDbBlockTableRecord
  2
SUSM01_01
340
0
  0
BLOCK_RECORD
  5
22D
330
1
100
AcDbSymbolTableRecord
100
AcDbBlockTableRecord
  2
OKRAG_PELNY
340
0
  0
BLOCK_RECORD
  5
22E
330
1
100
AcDbSymbolTableRecord
100
AcDbBlockTableRecord
  2
EPPGS1
340
0
  0
BLOCK_RECORD
  5
22F
330
1
100
AcDbSymbolTableRecord
100
AcDbBlockTableRecord
  2
EPPGS
340
0
  0
BLOCK_RECORD
  5
230
330
1
100
AcDbSymbolTableRecord
100
AcDbBlockTableRecord
  2
EPPGN
340
0
  0
BLOCK_RECORD
  5
231
330
1
100
AcDbSymbolTableRecord
100
AcDbBlockTableRecord
  2
EPPGN1
340
0
  0
BLOCK_RECORD
  5
232
330
1
100
AcDbSymbolTableRecord
100
AcDbBlockTableRecord
  2
SUPE02N_1
340
0
  0
ENDTAB
  0
ENDSEC
  0
SECTION
  2
BLOCKS
  0
BLOCK
  5
1A
330
19
100
AcDbEntity
  8
0
100
AcDbBlockBegin
  2
*MODEL_SPACE
 70
     0
 10
0.0
 20
0.0
 30
0.0
  3
*MODEL_SPACE
  1

  0
ENDBLK
  5
1B
330
19
100
AcDbEntity
  8
0
100
AcDbBlockEnd
  0
BLOCK
  5
17
330
16
100
AcDbEntity
 67
     1
  8
0
100
AcDbBlockBegin
  2
*PAPER_SPACE
 70
     0
 10
0.0
 20
0.0
 30
0.0
  3
*PAPER_SPACE
  1

  0
ENDBLK
  5
18
330
16
100
AcDbEntity
 67
     1
  8
0
100
AcDbBlockEnd
  0
BLOCK
  5
238
100
AcDbEntity
  8
0
100
AcDbBlockBegin
  2
SUSM01_01
 70
     0
 10
0.0
 20
0.0
 30
0.0
  3
SUSM01_01
  1

  0
LWPOLYLINE
  5
233
100
AcDbEntity
  8
0
 62
     0
370
    -1
100
AcDbPolyline
 90
        2
 70
     0
 43
0.0
 10
0.353553
 20
0.353553
 10
0.212132
 20
0.212132
  0
LWPOLYLINE
  5
234
100
AcDbEntity
  8
0
 62
     0
370
    -1
100
AcDbPolyline
 90
        2
 70
     0
 43
0.0
 10
-0.353553
 20
0.353553
 10
-0.212132
 20
0.212132
  0
LWPOLYLINE
  5
235
100
AcDbEntity
  8
0
 62
     0
370
    -1
100
AcDbPolyline
 90
        2
 70
     0
 43
0.0
 10
0.353553
 20
-0.353553
 10
0.212132
 20
-0.212132
  0
LWPOLYLINE
  5
236
100
AcDbEntity
  8
0
 62
     0
370
    -1
100
AcDbPolyline
 90
       21
 70
     1
 43
0.0
 10
0.100000
 20
0.000000
 10
0.093969
 20
-0.034202
 10
0.076604
 20
-0.064279
 10
0.050000
 20
-0.086603
 10
0.025882
 20
-0.096593
 10
0.000000
 20
-0.100000
 10
-0.025882
 20
-0.096593
 10
-0.050000
 20
-0.086603
 10
-0.073305
 20
-0.068017
 10
-0.090097
 20
-0.043388
 10
-0.098883
 20
-0.014904
 10
-0.098883
 20
0.014904
 10
-0.090097
 20
0.043388
 10
-0.073305
 20
0.068017
 10
-0.050000
 20
0.086603
 10
-0.022252
 20
0.097493
 10
0.007473
 20
0.099720
 10
0.036534
 20
0.093087
 10
0.062349
 20
0.078183
 10
0.082624
 20
0.056332
 10
0.095557
 20
0.029476
  0
LWPOLYLINE
  5
237
100
AcDbEntity
  8
0
 62
     0
370
    -1
100
AcDbPolyline
 90
        2
 70
     0
 43
0.0
 10
-0.353553
 20
-0.353553
 10
-0.212132
 20
-0.212132
  0
ENDBLK
  5
239
100
AcDbEntity
  8
0
100
AcDbBlockEnd
  0
BLOCK
  5
23B
100
AcDbEntity
  8
0
100
AcDbBlockBegin
  2
OKRAG_PELNY
 70
     0
 10
0.0
 20
0.0
 30
0.0
  3
OKRAG_PELNY
  1

  0
LWPOLYLINE
  5
23A
100
AcDbEntity
  8
0
 62
     0
370
    -1
100
AcDbPolyline
 90
       24
 70
     1
 43
0.0
 10
0.500000
 20
0.000000
 10
0.482963
 20
-0.129410
 10
0.433013
 20
-0.250000
 10
0.353553
 20
-0.353553
 10
0.250000
 20
-0.433013
 10
0.129410
 20
-0.482963
 10
0.000000
 20
-0.500000
 10
-0.129410
 20
-0.482963
 10
-0.250000
 20
-0.433013
 10
-0.353553
 20
-0.353553
 10
-0.433013
 20
-0.250000
 10
-0.482963
 20
-0.129410
 10
-0.500000
 20
-0.000000
 10
-0.482963
 20
0.129410
 10
-0.433013
 20
0.250000
 10
-0.353553
 20
0.353553
 10
-0.250000
 20
0.433013
 10
-0.129410
 20
0.482963
 10
-0.000000
 20
0.500000
 10
0.129410
 20
0.482963
 10
0.250000
 20
0.433013
 10
0.353553
 20
0.353553
 10
0.433013
 20
0.250000
 10
0.482963
 20
0.129410
  0
ENDBLK
  5
23C
100
AcDbEntity
  8
0
100
AcDbBlockEnd
  0
BLOCK
  5
23D
100
AcDbEntity
  8
0
100
AcDbBlockBegin
  2
EPPGS1
 70
     0
 10
0.0
 20
0.0
 30
0.0
  3
EPPGS1
  1

  0
ENDBLK
  5
23E
100
AcDbEntity
  8
0
100
AcDbBlockEnd
  0
BLOCK
  5
240
100
AcDbEntity
  8
0
100
AcDbBlockBegin
  2
EPPGS
 70
     0
 10
0.0
 20
0.0
 30
0.0
  3
EPPGS
  1

  0
LWPOLYLINE
  5
23F
100
AcDbEntity
  8
0
 62
     0
370
    -1
100
AcDbPolyline
 90
       20
 70
     1
 43
0.0
 10
0.500000
 20
0.000000
 10
0.475528
 20
-0.154508
 10
0.404508
 20
-0.293893
 10
0.293893
 20
-0.404508
 10
0.154508
 20
-0.475528
 10
0.000000
 20
-0.500000
 10
-0.154508
 20
-0.475528
 10
-0.293893
 20
-0.404508
 10
-0.404508
 20
-0.293893
 10
-0.475528
 20
-0.154508
 10
-0.500000
 20
-0.000000
 10
-0.475528
 20
0.154508
 10
-0.404508
 20
0.293893
 10
-0.293893
 20
0.404508
 10
-0.154508
 20
0.475528
 10
-0.000000
 20
0.500000
 10
0.154508
 20
0.475528
 10
0.293893
 20
0.404508
 10
0.404508
 20
0.293893
 10
0.475528
 20
0.154508
  0
ENDBLK
  5
241
100
AcDbEntity
  8
0
100
AcDbBlockEnd
  0
BLOCK
  5
243
100
AcDbEntity
  8
0
100
AcDbBlockBegin
  2
EPPGN
 70
     0
 10
0.0
 20
0.0
 30
0.0
  3
EPPGN
  1

  0
HATCH
  5
242
100
AcDbEntity
  8
0
 62
     0
100
AcDbHatch
 10
0.0
 20
0.0
 30
0.0
210
0.0
220
0.0
230
1.0
  2
SOLID
 70
     1
 71
     0
 91
        1
 92
        7
 72
     0
 73
     1
 93
       20
 10
-0.090000
 20
-0.000000
 10
-0.085595
 20
-0.027812
 10
-0.072812
 20
-0.052901
 10
-0.052901
 20
-0.072812
 10
-0.027812
 20
-0.085595
 10
0.000000
 20
-0.090000
 10
0.027812
 20
-0.085595
 10
0.052901
 20
-0.072812
 10
0.072812
 20
-0.052901
 10
0.085595
 20
-0.027812
 10
0.090000
 20
0.000000
 10
0.085595
 20
0.027812
 10
0.072812
 20
0.052901
 10
0.052901
 20
0.072812
 10
0.027812
 20
0.085595
 10
-0.000000
 20
0.090000
 10
-0.027812
 20
0.085595
 10
-0.052901
 20
0.072812
 10
-0.072812
 20
0.052901
 10
-0.085595
 20
0.027812
 97
        0
 75
     0
 76
     1
 47
1.0
 98
        0
  0
ENDBLK
  5
244
100
AcDbEntity
  8
0
100
AcDbBlockEnd
  0
BLOCK
  5
245
100
AcDbEntity
  8
0
100
AcDbBlockBegin
  2
EPPGN1
 70
     0
 10
0.0
 20
0.0
 30
0.0
  3
EPPGN1
  1

  0
ENDBLK
  5
246
100
AcDbEntity
  8
0
100
AcDbBlockEnd
  0
BLOCK
  5
24A
100
AcDbEntity
  8
0
100
AcDbBlockBegin
  2
SUPE02N_1
 70
     0
 10
0.0
 20
0.0
 30
0.0
  3
SUPE02N_1
  1

  0
LWPOLYLINE
  5
247
100
AcDbEntity
  8
0
 62
     0
370
    -1
100
AcDbPolyline
 90
        3
 70
     0
 43
0.0
 10
17.682163
 20
1.000000
 10
19.414214
 20
-0.000000
 10
17.682163
 20
-1.000000
  0
LWPOLYLINE
  5
248
100
AcDbEntity
  8
0
 62
     0
370
    -1
100
AcDbPolyline
 90
        2
 70
     0
 43
0.0
 10
16.000000
 20
1.000000
 10
16.000000
 20
-1.000000
  0
LWPOLYLINE
  5
249
100
AcDbEntity
  8
0
 62
     0
370
    -1
100
AcDbPolyline
 90
        2
 70
     0
 43
0.0
 10
0.000000
 20
0.000000
 10
20.700000
 20
-0.000000
  0
ENDBLK
  5
24B
100
AcDbEntity
  8
0
100
AcDbBlockEnd
  0
ENDSEC
  0
SECTION
  2
ENTITIES
  0
INSERT
  5
30D41
100
AcDbEntity
  8
SUSM
  6
BYLAYER
 62
   256
 48
1.000000000000000
370
     5
100
AcDbBlockReference
  2
SUSM01_01
 10
6477054.939458579756320
 20
5751353.213738080114126
 30
10.240000000000000
 41
2.500000000000000
 42
2.500000000000000
 43
1.000000000000000
 50
90.000000000000000
  0
INSERT
  5
30D42
100
AcDbEntity
  8
SUSM
  6
BYLAYER
 62
   256
 48
1.000000000000000
370
     5
100
AcDbBlockReference
  2
SUSM01_01
 10
6477040.766036819666624
 20
5751358.077407940290868
 30
10.240000000000000
 41
2.500000000000000
 42
2.500000000000000
 43
1.000000000000000
 50
90.000000000000000
  0
INSERT
  5
30D43
100
AcDbEntity
  8
SUSM
  6
BYLAYER
 62
   256
 48
1.000000000000000
370
     5
100
AcDbBlockReference
  2
SUSM01_01
 10
6477046.237665410153568
 20
5751382.930024010129273
 30
10.240000000000000
 41
2.500000000000000
 42
2.500000000000000
 43
1.000000000000000
 50
90.000000000000000
  0
INSERT
  5
30D44
100
AcDbEntity
  8
SUSM
  6
BYLAYER
 62
   256
 48
1.000000000000000
370
     5
100
AcDbBlockReference
  2
SUSM01_01
 10
6477041.914403310045600
 20
5751371.728844939731061
 30
10.240000000000000
 41
2.500000000000000
 42
2.500000000000000
 43
1.000000000000000
 50
90.000000000000000
  0
INSERT
  5
30D45
100
AcDbEntity
  8
SUSM
  6
BYLAYER
 62
   256
 48
1.000000000000000
370
     5
100
AcDbBlockReference
  2
SUSM01_01
 10
6477028.674413139931858
 20
5751369.149626069702208
 30
10.240000000000000
 41
2.500000000000000
 42
2.500000000000000
 43
1.000000000000000
 50
90.000000000000000
  0
INSERT
  5
30D46
100
AcDbEntity
  8
SUSM
  6
BYLAYER
 62
   256
 48
1.000000000000000
370
     5
100
AcDbBlockReference
  2
SUSM01_01
 10
6477025.789509000256658
 20
5751358.892795999534428
 30
10.240000000000000
 41
2.500000000000000
 42
2.500000000000000
 43
1.000000000000000
 50
90.000000000000000
  0
INSERT
  5
30D47
100
AcDbEntity
  8
SUSM
  6
BYLAYER
 62
   256
 48
1.000000000000000
370
     5
100
AcDbBlockReference
  2
OKRAG_PELNY
 10
6477025.790000000037253
 20
5751358.910000000149012
 30
10.240000000000000
 41
0.500000000000000
 42
0.500000000000000
 43
1.000000000000000
 50
90.000000000000000
  0
INSERT
  5
30D48
100
AcDbEntity
  8
SUSM
  6
BYLAYER
 62
   256
 48
1.000000000000000
370
     5
100
AcDbBlockReference
  2
OKRAG_PELNY
 10
6477028.690000000409782
 20
5751369.150000000372529
 30
10.240000000000000
 41
0.500000000000000
 42
0.500000000000000
 43
1.000000000000000
 50
90.000000000000000
  0
INSERT
  5
30D49
100
AcDbEntity
  8
SUSM
  6
BYLAYER
 62
   256
 48
1.000000000000000
370
     5
100
AcDbBlockReference
  2
OKRAG_PELNY
 10
6477054.940000000409782
 20
5751353.179999999701977
 30
10.240000000000000
 41
0.500000000000000
 42
0.500000000000000
 43
1.000000000000000
 50
90.000000000000000
  0
INSERT
  5
30D4A
100
AcDbEntity
  8
SUSM
  6
BYLAYER
 62
   256
 48
1.000000000000000
370
     5
100
AcDbBlockReference
  2
OKRAG_PELNY
 10
6477040.769999999552965
 20
5751358.080000000074506
 30
10.240000000000000
 41
0.500000000000000
 42
0.500000000000000
 43
1.000000000000000
 50
90.000000000000000
  0
INSERT
  5
30D4B
100
AcDbEntity
  8
SUSM
  6
BYLAYER
 62
   256
 48
1.000000000000000
370
     5
100
AcDbBlockReference
  2
OKRAG_PELNY
 10
6477041.940000000409782
 20
5751371.740000000223517
 30
10.240000000000000
 41
0.500000000000000
 42
0.500000000000000
 43
1.000000000000000
 50
90.000000000000000
  0
INSERT
  5
30D4C
100
AcDbEntity
  8
SUSM
  6
BYLAYER
 62
   256
 48
1.000000000000000
370
     5
100
AcDbBlockReference
  2
OKRAG_PELNY
 10
6477046.230000000447035
 20
5751382.950000000186265
 30
10.240000000000000
 41
0.500000000000000
 42
0.500000000000000
 43
1.000000000000000
 50
90.000000000000000
  0
INSERT
  5
30D4D
100
AcDbEntity
  8
SUSM
  6
BYLAYER
 62
   256
 48
1.000000000000000
370
     5
100
AcDbBlockReference
  2
OKRAG_PELNY
 10
6477105.009999999776483
 20
5751384.599999999627471
 30
10.240000000000000
 41
0.500000000000000
 42
0.500000000000000
 43
1.000000000000000
 50
90.000000000000000
  0
INSERT
  5
30D4E
100
AcDbEntity
  8
SUSM
  6
BYLAYER
 62
   256
 48
1.000000000000000
370
     5
100
AcDbBlockReference
  2
OKRAG_PELNY
 10
6477108.679999999701977
 20
5751382.969999999739230
 30
10.240000000000000
 41
0.500000000000000
 42
0.500000000000000
 43
1.000000000000000
 50
90.000000000000000
  0
INSERT
  5
30D4F
100
AcDbEntity
  8
SUSM
  6
BYLAYER
 62
   256
 48
1.000000000000000
370
     5
100
AcDbBlockReference
  2
OKRAG_PELNY
 10
6477106.919999999925494
 20
5751379.190000000409782
 30
10.240000000000000
 41
0.500000000000000
 42
0.500000000000000
 43
1.000000000000000
 50
90.000000000000000
  0
INSERT
  5
30D50
100
AcDbEntity
  8
SUSM
  6
BYLAYER
 62
   256
 48
1.000000000000000
370
     5
100
AcDbBlockReference
  2
OKRAG_PELNY
 10
6477103.200000000186265
 20
5751380.879999999888241
 30
10.240000000000000
 41
0.500000000000000
 42
0.500000000000000
 43
1.000000000000000
 50
90.000000000000000
  0
INSERT
  5
30D51
100
AcDbEntity
  8
EGBP04
  6
BYLAYER
 62
   256
 48
1.000000000000000
370
     5
100
AcDbBlockReference
  2
EPPGS1
 10
6477009.290000000037253
 20
5751338.950000000186265
 30
10.310000000000000
 41
0.500000000000000
 42
0.500000000000000
 43
1.000000000000000
 50
90.000000000000000
  0
INSERT
  5
30D52
100
AcDbEntity
  8
EGBP04
  6
BYLAYER
 62
   256
 48
1.000000000000000
370
     5
100
AcDbBlockReference
  2
EPPGS
 10
6477009.290000000037253
 20
5751338.950000000186265
 30
10.320000000000000
 41
0.500000000000000
 42
0.500000000000000
 43
1.000000000000000
 50
90.000000000000000
  0
INSERT
  5
30D53
100
AcDbEntity
  8
EGBP04
  6
BYLAYER
 62
   256
 48
1.000000000000000
370
     5
100
AcDbBlockReference
  2
EPPGS1
 10
6477062.839999999850988
 20
5751323.559999999590218
 30
10.310000000000000
 41
0.500000000000000
 42
0.500000000000000
 43
1.000000000000000
 50
90.000000000000000
  0
INSERT
  5
30D54
100
AcDbEntity
  8
EGBP04
  6
BYLAYER
 62
   256
 48
1.000000000000000
370
     5
100
AcDbBlockReference
  2
EPPGS
 10
6477062.839999999850988
 20
5751323.559999999590218
 30
10.320000000000000
 41
0.500000000000000
 42
0.500000000000000
 43
1.000000000000000
 50
90.000000000000000
  0
INSERT
  5
30D55
100
AcDbEntity
  8
EGBP04
  6
BYLAYER
 62
   256
 48
1.000000000000000
370
     5
100
AcDbBlockReference
  2
EPPGS1
 10
6477083.280000000260770
 20
5751394.690000000409782
 30
10.310000000000000
 41
0.500000000000000
 42
0.500000000000000
 43
1.000000000000000
 50
90.000000000000000
  0
INSERT
  5
30D56
100
AcDbEntity
  8
EGBP04
  6
BYLAYER
 62
   256
 48
1.000000000000000
370
     5
100
AcDbBlockReference
  2
EPPGS
 10
6477083.280000000260770
 20
5751394.690000000409782
 30
10.320000000000000
 41
0.500000000000000
 42
0.500000000000000
 43
1.000000000000000
 50
90.000000000000000
  0
INSERT
  5
30D57
100
AcDbEntity
  8
EGBP04
  6
BYLAYER
 62
    94
420
    32768
 48
1.000000000000000
370
    18
100
AcDbBlockReference
  2
EPPGN
 10
6477025.440000000409782
 20
5751411.320000000298023
 30
10.320000000000000
 41
0.500000000000000
 42
0.500000000000000
 43
1.000000000000000
 50
90.000000000000000
  0
INSERT
  5
30D58
100
AcDbEntity
  8
EGBP04
  6
BYLAYER
 62
    94
420
    32768
 48
1.000000000000000
370
    18
100
AcDbBlockReference
  2
EPPGN
 10
6477132.780000000260770
 20
5751380.459999999962747
 30
10.320000000000000
 41
0.500000000000000
 42
0.500000000000000
 43
1.000000000000000
 50
90.000000000000000
  0
INSERT
  5
30D59
100
AcDbEntity
  8
EGBP04
  6
BYLAYER
 62
    94
420
    32768
 48
1.000000000000000
370
    18
100
AcDbBlockReference
  2
EPPGN
 10
6477118.019999999552965
 20
5751329.110000000335276
 30
10.320000000000000
 41
0.500000000000000
 42
0.500000000000000
 43
1.000000000000000
 50
90.000000000000000
  0
INSERT
  5
30D5A
100
AcDbEntity
  8
EGBP04
  6
BYLAYER
 62
    94
420
    32768
 48
1.000000000000000
370
    18
100
AcDbBlockReference
  2
EPPGN
 10
6477109.570000000298023
 20
5751299.719999999739230
 30
10.320000000000000
 41
0.500000000000000
 42
0.500000000000000
 43
1.000000000000000
 50
90.000000000000000
  0
INSERT
  5
30D5B
100
AcDbEntity
  8
EGBP04
  6
BYLAYER
 62
   256
 48
1.000000000000000
370
     5
100
AcDbBlockReference
  2
EPPGN1
 10
6477007.150000000372529
 20
5751329.160000000149012
 30
10.310000000000000
 41
0.500000000000000
 42
0.500000000000000
 43
1.000000000000000
 50
90.000000000000000
  0
INSERT
  5
30D5C
100
AcDbEntity
  8
EGBP04
  6
BYLAYER
 62
   256
 48
1.000000000000000
370
     5
100
AcDbBlockReference
  2
EPPGN
 10
6477007.150000000372529
 20
5751329.160000000149012
 30
10.320000000000000
 41
0.500000000000000
 42
0.500000000000000
 43
1.000000000000000
 50
90.000000000000000
  0
INSERT
  5
30D5D
100
AcDbEntity
  8
EGBP04
  6
BYLAYER
 62
    94
420
    32768
 48
1.000000000000000
370
    18
100
AcDbBlockReference
  2
EPPGN
 10
6476986.611133590340614
 20
5751425.294081410393119
 30
10.320000000000000
 41
0.500000000000000
 42
0.500000000000000
 43
1.000000000000000
 50
90.000000000000000
  0
INSERT
  5
30D5E
100
AcDbEntity
  8
EGBP04
  6
BYLAYER
 62
   256
 48
1.000000000000000
370
     5
100
AcDbBlockReference
  2
EPPGN1
 10
6476969.955643920227885
 20
5751339.848249180242419
 30
10.310000000000000
 41
0.500000000000000
 42
0.500000000000000
 43
1.000000000000000
 50
90.000000000000000
  0
INSERT
  5
30D5F
100
AcDbEntity
  8
EGBP04
  6
BYLAYER
 62
   256
 48
1.000000000000000
370
     5
100
AcDbBlockReference
  2
EPPGN
 10
6476969.955643920227885
 20
5751339.848249180242419
 30
10.320000000000000
 41
0.500000000000000
 42
0.500000000000000
 43
1.000000000000000
 50
90.000000000000000
  0
INSERT
  5
30D60
100
AcDbEntity
  8
EGBP04
  6
BYLAYER
 62
   256
 48
1.000000000000000
370
     5
100
AcDbBlockReference
  2
EPPGS1
 10
6477004.360000000335276
 20
5751316.400000000372529
 30
10.310000000000000
 41
0.500000000000000
 42
0.500000000000000
 43
1.000000000000000
 50
90.000000000000000
  0
INSERT
  5
30D61
100
AcDbEntity
  8
EGBP04
  6
BYLAYER
 62
   256
 48
1.000000000000000
370
     5
100
AcDbBlockReference
  2
EPPGS
 10
6477004.360000000335276
 20
5751316.400000000372529
 30
10.320000000000000
 41
0.500000000000000
 42
0.500000000000000
 43
1.000000000000000
 50
90.000000000000000
  0
INSERT
  5
30D62
100
AcDbEntity
  8
EGBP04
  6
BYLAYER
 62
   256
 48
1.000000000000000
370
     5
100
AcDbBlockReference
  2
EPPGS1
 10
6477013.820000000298023
 20
5751359.690000000409782
 30
10.310000000000000
 41
0.500000000000000
 42
0.500000000000000
 43
1.000000000000000
 50
90.000000000000000
  0
INSERT
  5
30D63
100
AcDbEntity
  8
EGBP04
  6
BYLAYER
 62
   256
 48
1.000000000000000
370
     5
100
AcDbBlockReference
  2
EPPGS
 10
6477013.820000000298023
 20
5751359.690000000409782
 30
10.320000000000000
 41
0.500000000000000
 42
0.500000000000000
 43
1.000000000000000
 50
90.000000000000000
  0
INSERT
  5
30D64
100
AcDbEntity
  8
EGBP04
  6
BYLAYER
 62
    94
420
    32768
 48
1.000000000000000
370
    18
100
AcDbBlockReference
  2
EPPGS
 10
6477025.980000000447035
 20
5751413.719999999739230
 30
10.320000000000000
 41
0.500000000000000
 42
0.500000000000000
 43
1.000000000000000
 50
90.000000000000000
  0
INSERT
  5
30D65
100
AcDbEntity
  8
EGBP04
  6
BYLAYER
 62
    94
420
    32768
 48
1.000000000000000
370
    18
100
AcDbBlockReference
  2
EPPGS
 10
6477020.179999999701977
 20
5751415.259999999776483
 30
10.320000000000000
 41
0.500000000000000
 42
0.500000000000000
 43
1.000000000000000
 50
90.000000000000000
  0
INSERT
  5
30D66
100
AcDbEntity
  8
EGBP04
  6
BYLAYER
 62
   256
 48
1.000000000000000
370
     5
100
AcDbBlockReference
  2
EPPGS1
 10
6476998.530000000260770
 20
5751317.740000000223517
 30
10.310000000000000
 41
0.500000000000000
 42
0.500000000000000
 43
1.000000000000000
 50
90.000000000000000
  0
INSERT
  5
30D67
100
AcDbEntity
  8
EGBP04
  6
BYLAYER
 62
   256
 48
1.000000000000000
370
     5
100
AcDbBlockReference
  2
EPPGS
 10
6476998.530000000260770
 20
5751317.740000000223517
 30
10.320000000000000
 41
0.500000000000000
 42
0.500000000000000
 43
1.000000000000000
 50
90.000000000000000
  0
INSERT
  5
30D68
100
AcDbEntity
  8
EGBP04
  6
BYLAYER
 62
    94
420
    32768
 48
1.000000000000000
370
    18
100
AcDbBlockReference
  2
EPPGS
 10
6476992.395043659955263
 20
5751424.208710310049355
 30
10.320000000000000
 41
0.500000000000000
 42
0.500000000000000
 43
1.000000000000000
 50
90.000000000000000
  0
INSERT
  5
30D69
100
AcDbEntity
  8
EGBP04
  6
BYLAYER
 62
   256
 48
1.000000000000000
370
     5
100
AcDbBlockReference
  2
EPPGS1
 10
6476973.155072519555688
 20
5751326.203772800043225
 30
10.310000000000000
 41
0.500000000000000
 42
0.500000000000000
 43
1.000000000000000
 50
90.000000000000000
  0
INSERT
  5
30D6A
100
AcDbEntity
  8
EGBP04
  6
BYLAYER
 62
   256
 48
1.000000000000000
370
     5
100
AcDbBlockReference
  2
EPPGS
 10
6476973.155072519555688
 20
5751326.203772800043225
 30
10.320000000000000
 41
0.500000000000000
 42
0.500000000000000
 43
1.000000000000000
 50
90.000000000000000
  0
INSERT
  5
30D6B
100
AcDbEntity
  8
EGBP04
  6
BYLAYER
 62
   256
 48
1.000000000000000
370
     5
100
AcDbBlockReference
  2
EPPGS1
 10
6476975.343160780146718
 20
5751367.726661030203104
 30
10.310000000000000
 41
0.500000000000000
 42
0.500000000000000
 43
1.000000000000000
 50
90.000000000000000
  0
INSERT
  5
30D6C
100
AcDbEntity
  8
EGBP04
  6
BYLAYER
 62
   256
 48
1.000000000000000
370
     5
100
AcDbBlockReference
  2
EPPGS
 10
6476975.343160780146718
 20
5751367.726661030203104
 30
10.320000000000000
 41
0.500000000000000
 42
0.500000000000000
 43
1.000000000000000
 50
90.000000000000000
  0
INSERT
  5
30D6D
100
AcDbEntity
  8
EGBP04
  6
BYLAYER
 62
   256
 48
1.000000000000000
370
     5
100
AcDbBlockReference
  2
EPPGS1
 10
6476970.119295950047672
 20
5751340.843798990361392
 30
10.310000000000000
 41
0.500000000000000
 42
0.500000000000000
 43
1.000000000000000
 50
90.000000000000000
  0
INSERT
  5
30D6E
100
AcDbEntity
  8
EGBP04
  6
BYLAYER
 62
   256
 48
1.000000000000000
370
     5
100
AcDbBlockReference
  2
EPPGS
 10
6476970.119295950047672
 20
5751340.843798990361392
 30
10.320000000000000
 41
0.500000000000000
 42
0.500000000000000
 43
1.000000000000000
 50
90.000000000000000
  0
LWPOLYLINE
  5
30D6F
100
AcDbEntity
  8
SUPE04
  6
PRZER4-1
 62
   256
 48
0.500000000000000
370
    -1
100
AcDbPolyline
 90
        6
 70
     0
 43
0.000000000000000
 38
10.180000000000000
 10
6477033.153034529648721
 20
5751381.092958549968898
 42
0.000000000000000
 10
6477029.935193049721420
 20
5751381.977403770200908
 42
0.461726436365537
 10
6477028.788757069967687
 20
5751381.471843370236456
 42
0.000000000000000
 10
6477022.287119270302355
 20
5751358.774324500001967
 42
0.000000000000000
 10
6477025.857569269835949
 20
5751351.705625840462744
 42
0.000000000000000
 10
6477021.317602889612317
 20
5751335.840604740194976
 42
0.000000000000000
  0
TEXT
  5
30D70
100
AcDbEntity
  8
SUPE04_O
  6
CONTINUOUS
 62
   256
370
     0
100
AcDbText
 10
6477025.537938170135021
 20
5751370.123083935119212
 30
10.800000000000001
 40
0.750000000000000
  1
proj. e
 50
74.015794829554778
  7
GEO-INFO
 72
     1
 11
6477025.537938170135021
 21
5751370.123083935119212
 31
10.800000000000001
100
AcDbText
 73
     2
  0
LWPOLYLINE
  5
30D71
100
AcDbEntity
  8
SUPT01
  6
CONTINUOUS
 62
   256
 48
1.000000000000000
370
    -1
100
AcDbPolyline
 90
        5
 70
     0
 43
0.000000000000000
 38
10.180000000000000
 10
6477029.089947329834104
 20
5751378.689795389771461
 42
0.000000000000000
 10
6477014.890112070366740
 20
5751382.840881180018187
 42
0.000000000000000
 10
6477013.639736009761691
 20
5751382.100299930199981
 42
0.000000000000000
 10
6476999.309756410308182
 20
5751317.560207780450583
 42
0.000000000000000
 10
6476998.920082361437380
 20
5751315.845540085807443
 42
0.000000000000000
  0
TEXT
  5
30D72
100
AcDbEntity
  8
SUPT01_O
  6
CONTINUOUS
 62
   256
370
     0
100
AcDbText
 10
6477010.721040099859238
 20
5751369.208181180059910
 30
10.800000000000001
 40
0.750000000000000
  1
2tB
 50
77.196468891352595
  7
GEO-INFO
 72
     1
 11
6477010.721040099859238
 21
5751369.208181180059910
 31
10.800000000000001
100
AcDbText
 73
     2
  0
TEXT
  5
30D73
100
AcDbEntity
  8
SUPT01_O
  6
CONTINUOUS
 62
   256
370
     0
100
AcDbText
 10
6477006.474746210500598
 20
5751349.830253855325282
 30
10.800000000000001
 40
0.750000000000000
  1
2tB
 50
257.481567023206310
  7
GEO-INFO
 72
     1
 11
6477006.474746210500598
 21
5751349.830253855325282
 31
10.800000000000001
100
AcDbText
 73
     2
  0
TEXT
  5
30D74
100
AcDbEntity
  8
SUPT01_O
  6
CONTINUOUS
 62
   256
370
     0
100
AcDbText
 10
6477006.474746210500598
 20
5751349.830253855325282
 30
10.800000000000001
 40
0.750000000000000
  1
2tB
 50
257.481567023206310
  7
GEO-INFO
 72
     1
 11
6477006.474746210500598
 21
5751349.830253855325282
 31
10.800000000000001
100
AcDbText
 73
     2
  0
LWPOLYLINE
  5
30D75
100
AcDbEntity
  8
SUPT01
  6
CONTINUOUS
 62
   256
 48
1.000000000000000
370
    -1
100
AcDbPolyline
 90
        3
 70
     0
 43
0.000000000000000
 38
10.180000000000000
 10
6477032.889999999664724
 20
5751377.580000000074506
 42
0.000000000000000
 10
6477030.779891880229115
 20
5751378.199908359907568
 42
0.000000000000000
 10
6477029.089947329834104
 20
5751378.689795389771461
 42
0.000000000000000
  0
TEXT
  5
30D76
100
AcDbEntity
  8
SUPT01_O
  6
CONTINUOUS
 62
   256
370
     0
100
AcDbText
 10
6477034.076637400314212
 20
5751377.424148160032928
 30
10.800000000000001
 40
0.750000000000000
  1
tB
 50
343.628259451243878
  7
GEO-INFO
 72
     1
 11
6477034.076637400314212
 21
5751377.424148160032928
 31
10.800000000000001
100
AcDbText
 73
     2
  0
LWPOLYLINE
  5
30D77
100
AcDbEntity
  8
SUPT01
  6
CONTINUOUS
 62
   256
 48
1.000000000000000
370
    -1
100
AcDbPolyline
 90
        5
 70
     0
 43
0.000000000000000
 38
10.180000000000000
 10
6477033.150000000372529
 20
5751379.490000000223517
 42
0.000000000000000
 10
6477031.690000000409782
 20
5751379.780000000260770
 42
0.000000000000000
 10
6477030.738319169729948
 20
5751379.510067650116980
 42
0.000000000000000
 10
6477030.009419010020792
 20
5751378.929247800260782
 42
0.000000000000000
 10
6477029.089947329834104
 20
5751378.689795389771461
 42
0.000000000000000
  0
TEXT
  5
30D78
100
AcDbEntity
  8
SUPT01_O
  6
CONTINUOUS
 62
   256
370
     0
100
AcDbText
 10
6477034.482919350266457
 20
5751379.091913360171020
 30
10.800000000000001
 40
0.750000000000000
  1
tB
 50
348.765572575090630
  7
GEO-INFO
 72
     1
 11
6477034.482919350266457
 21
5751379.091913360171020
 31
10.800000000000001
100
AcDbText
 73
     2
  0
LWPOLYLINE
  5
30D79
100
AcDbEntity
  8
SUPE03
  6
CONTINUOUS
 62
   256
 48
1.000000000000000
370
    -1
100
AcDbPolyline
 90
        8
 70
     0
 43
0.000000000000000
 38
10.180000000000000
 10
6477032.730000000447035
 20
5751377.009999999776483
 42
0.000000000000000
 10
6477031.519999999552965
 20
5751377.459999999962747
 42
0.000000000000000
 10
6477030.780000000260770
 20
5751378.200000000186265
 42
0.000000000000000
 10
6477029.089999999850988
 20
5751378.690000000409782
 42
0.000000000000000
 10
6477014.889999999664724
 20
5751382.839999999850988
 42
0.000000000000000
 10
6477013.639999999664724
 20
5751382.099999999627471
 42
0.000000000000000
 10
6476999.309999999590218
 20
5751317.559999999590218
 42
0.000000000000000
 10
6476998.920360764488578
 20
5751315.845484592951834
 42
0.000000000000000
  0
TEXT
  5
30D7A
100
AcDbEntity
  8
SUPE03_O
  6
CONTINUOUS
 62
   256
370
     0
100
AcDbText
 10
6477009.869253870099783
 20
5751364.899408619850874
 30
10.800000000000001
 40
0.750000000000000
  1
eSB
 50
77.196482551730938
  7
GEO-INFO
 72
     1
 11
6477009.869253870099783
 21
5751364.899408619850874
 31
10.800000000000001
100
AcDbText
 73
     2
  0
TEXT
  5
30D7B
100
AcDbEntity
  8
SUPE03_O
  6
CONTINUOUS
 62
   256
370
     0
100
AcDbText
 10
6477006.474999999627471
 20
5751349.830000000074506
 30
10.800000000000001
 40
0.750000000000000
  1
eSB
 50
257.481532453015234
  7
GEO-INFO
 72
     1
 11
6477006.474999999627471
 21
5751349.830000000074506
 31
10.800000000000001
100
AcDbText
 73
     2
  0
TEXT
  5
30D7C
100
AcDbEntity
  8
SUPE03_O
  6
CONTINUOUS
 62
   256
370
     0
100
AcDbText
 10
6477006.474999999627471
 20
5751349.830000000074506
 30
10.800000000000001
 40
0.750000000000000
  1
eSB
 50
257.481532453015234
  7
GEO-INFO
 72
     1
 11
6477006.474999999627471
 21
5751349.830000000074506
 31
10.800000000000001
100
AcDbText
 73
     2
  0
LWPOLYLINE
  5
30D7D
100
AcDbEntity
  8
SUPE03
  6
CONTINUOUS
 62
   256
 48
1.000000000000000
370
    -1
100
AcDbPolyline
 90
        9
 70
     0
 43
0.000000000000000
 38
10.180000000000000
 10
6477033.230000000447035
 20
5751379.780000000260770
 42
0.000000000000000
 10
6477031.959999999962747
 20
5751380.019999999552965
 42
0.000000000000000
 10
6477030.740000000223517
 20
5751379.509999999776483
 42
0.000000000000000
 10
6477030.009999999776483
 20
5751378.929999999701977
 42
0.000000000000000
 10
6477029.089999999850988
 20
5751378.690000000409782
 42
0.000000000000000
 10
6477014.889999999664724
 20
5751382.839999999850988
 42
0.000000000000000
 10
6477013.639999999664724
 20
5751382.099999999627471
 42
0.000000000000000
 10
6476999.309999999590218
 20
5751317.559999999590218
 42
0.000000000000000
 10
6476998.920360764488578
 20
5751315.845484592951834
 42
0.000000000000000
  0
LWPOLYLINE
  5
30D7E
100
AcDbEntity
  8
SUPE03
  6
CONTINUOUS
 62
   256
 48
1.000000000000000
370
    -1
100
AcDbPolyline
 90
        9
 70
     0
 43
0.000000000000000
 38
10.180000000000000
 10
6477035.320000000298023
 20
5751352.440000000409782
 42
0.000000000000000
 10
6477039.849999999627471
 20
5751359.419999999925494
 42
0.000000000000000
 10
6477040.290000000037253
 20
5751360.290000000037253
 42
0.000000000000000
 10
6477039.780000000260770
 20
5751362.549999999813735
 42
0.000000000000000
 10
6477039.849999999627471
 20
5751362.839999999850988
 42
0.000000000000000
 10
6477042.049999999813735
 20
5751370.480000000447035
 42
0.000000000000000
 10
6477041.580000000074506
 20
5751371.339999999850988
 42
0.000000000000000
 10
6477036.509999999776483
 20
5751372.799999999813735
 42
0.000000000000000
 10
6477034.219999999739230
 20
5751373.459999999962747
 42
0.000000000000000
  0
TEXT
  5
30D7F
100
AcDbEntity
  8
SUPE03_O
  6
CONTINUOUS
 62
   256
370
     0
100
AcDbText
 10
6477037.071885559707880
 20
5751355.264042959548533
 30
10.800000000000001
 40
0.750000000000000
  1
eSB
 50
57.016545214955691
  7
GEO-INFO
 72
     1
 11
6477037.071885559707880
 21
5751355.264042959548533
 31
10.800000000000001
100
AcDbText
 73
     2
  0
LWPOLYLINE
  5
30D80
100
AcDbEntity
  8
SUPE03
  6
CONTINUOUS
 62
   256
 48
1.000000000000000
370
    -1
100
AcDbPolyline
 90
        9
 70
     0
 43
0.000000000000000
 38
10.180000000000000
 10
6477034.509999999776483
 20
5751374.509999999776483
 42
0.000000000000000
 10
6477036.820000000298023
 20
5751373.849999999627471
 42
0.000000000000000
 10
6477042.809999999590218
 20
5751372.129999999888241
 42
-0.706530629027164
 10
6477042.330000000074506
 20
5751370.120000000111759
 42
0.000000000000000
 10
6477040.200000000186265
 20
5751362.690000000409782
 42
0.000000000000000
 10
6477040.219999999739230
 20
5751362.019999999552965
 42
0.000000000000000
 10
6477042.900000000372529
 20
5751357.459999999962747
 42
0.000000000000000
 10
6477043.009999999776483
 20
5751356.610000000335276
 42
0.000000000000000
 10
6477041.290000000037253
 20
5751350.639999999664724
 42
0.000000000000000
  0
TEXT
  5
30D81
100
AcDbEntity
  8
SUPE03_O
  6
CONTINUOUS
 62
   256
370
     0
100
AcDbText
 10
6477041.658023829571903
 20
5751367.758748739957809
 30
10.800000000000001
 40
0.750000000000000
  1
eSB
 50
74.003696963830137
  7
GEO-INFO
 72
     1
 11
6477041.658023829571903
 21
5751367.758748739957809
 31
10.800000000000001
100
AcDbText
 73
     2
  0
LWPOLYLINE
  5
30D82
100
AcDbEntity
  8
SUPE03
  6
CONTINUOUS
 62
   256
 48
1.000000000000000
370
    -1
100
AcDbPolyline
 90
        6
 70
     0
 43
0.000000000000000
 38
10.180000000000000
 10
6477034.610000000335276
 20
5751374.849999999627471
 42
0.000000000000000
 10
6477036.919999999925494
 20
5751374.190000000409782
 42
0.000000000000000
 10
6477042.209999999962747
 20
5751372.660000000149012
 42
0.000000000000000
 10
6477051.830000000074506
 20
5751369.900000000372529
 42
0.000000000000000
 10
6477052.309999999590218
 20
5751369.040000000037253
 42
0.000000000000000
 10
6477050.519999999552965
 20
5751362.830000000074506
 42
0.000000000000000
  0
TEXT
  5
30D83
100
AcDbEntity
  8
SUPE03_O
  6
CONTINUOUS
 62
   256
370
     0
100
AcDbText
 10
6477047.019999999552965
 20
5751371.280000000260770
 30
10.800000000000001
 40
0.750000000000000
  1
eSB
 50
343.991693580046672
  7
GEO-INFO
 72
     1
 11
6477047.019999999552965
 21
5751371.280000000260770
 31
10.800000000000001
100
AcDbText
 73
     2
  0
LWPOLYLINE
  5
30D84
100
AcDbEntity
  8
SUPE03
  6
CONTINUOUS
 62
   256
 48
1.000000000000000
370
    -1
100
AcDbPolyline
 90
       10
 70
     0
 43
0.000000000000000
 38
10.180000000000000
 10
6477047.980000000447035
 20
5751350.099999999627471
 42
0.000000000000000
 10
6477049.330000000074506
 20
5751354.790000000037253
 42
0.000000000000000
 10
6477048.950000000186265
 20
5751356.009999999776483
 42
0.000000000000000
 10
6477043.450000000186265
 20
5751357.589999999850988
 42
0.000000000000000
 10
6477043.040000000037253
 20
5751357.900000000372529
 42
0.000000000000000
 10
6477040.519999999552965
 20
5751362.200000000186265
 42
0.000000000000000
 10
6477042.660000000149012
 20
5751370.000000000000000
 42
0.596313279540420
 10
6477043.000000000000000
 20
5751372.820000000298023
 42
0.000000000000000
 10
6477037.019999999552965
 20
5751374.530000000260770
 42
0.000000000000000
 10
6477034.709999999962747
 20
5751375.190000000409782
 42
0.000000000000000
  0
TEXT
  5
30D85
100
AcDbEntity
  8
SUPE03_O
  6
CONTINUOUS
 62
   256
370
     0
100
AcDbText
 10
6477041.251562819816172
 20
5751364.440566060133278
 30
10.800000000000001
 40
0.750000000000000
  1
eSB
 50
74.657899312723131
  7
GEO-INFO
 72
     1
 11
6477041.251562819816172
 21
5751364.440566060133278
 31
10.800000000000001
100
AcDbText
 73
     2
  0
LWPOLYLINE
  5
30D86
100
AcDbEntity
  8
SUPE04
  6
CONTINUOUS
 62
   256
 48
1.000000000000000
370
    -1
100
AcDbPolyline
 90
        8
 70
     0
 43
0.000000000000000
 38
10.180000000000000
 10
6477037.820000000298023
 20
5751379.139999999664724
 42
0.000000000000000
 10
6477038.169999999925494
 20
5751378.530000000260770
 42
0.000000000000000
 10
6477035.490000000223517
 20
5751369.219999999739230
 42
-0.298195944564015
 10
6477033.370000000111759
 20
5751367.799999999813735
 42
0.000000000000000
 10
6477030.980000000447035
 20
5751368.490000000223517
 42
0.000000000000000
 10
6477031.320000000298023
 20
5751367.860000000335276
 42
0.000000000000000
 10
6477029.799999999813735
 20
5751362.639999999664724
 42
0.000000000000000
 10
6477025.790000000037253
 20
5751358.910000000149012
 42
0.000000000000000
  0
TEXT
  5
30D87
100
AcDbEntity
  8
SUPE04_O
  6
CONTINUOUS
 62
   256
370
     0
100
AcDbText
 10
6477030.387038730084896
 20
5751364.628612830303609
 30
10.800000000000001
 40
0.750000000000000
  1
eNB
 50
73.940872883844364
  7
GEO-INFO
 72
     1
 11
6477030.387038730084896
 21
5751364.628612830303609
 31
10.800000000000001
100
AcDbText
 73
     2
  0
LWPOLYLINE
  5
30D88
100
AcDbEntity
  8
SUPE04
  6
CONTINUOUS
 62
   256
 48
1.000000000000000
370
    -1
100
AcDbPolyline
 90
        6
 70
     0
 43
0.000000000000000
 38
10.180000000000000
 10
6477038.790000000037253
 20
5751378.870000000111759
 42
0.000000000000000
 10
6477038.169999999925494
 20
5751378.530000000260770
 42
0.000000000000000
 10
6477035.490000000223517
 20
5751369.219999999739230
 42
-0.298195944564015
 10
6477033.370000000111759
 20
5751367.799999999813735
 42
0.000000000000000
 10
6477030.980000000447035
 20
5751368.490000000223517
 42
0.000000000000000
 10
6477028.690000000409782
 20
5751369.150000000372529
 42
0.000000000000000
  0
TEXT
  5
30D89
100
AcDbEntity
  8
SUPE04_O
  6
CONTINUOUS
 62
   256
370
     0
100
AcDbText
 10
6477037.530073690228164
 20
5751376.527910830453038
 30
10.800000000000001
 40
0.750000000000000
  1
eNB
 50
73.940872883844364
  7
GEO-INFO
 72
     1
 11
6477037.530073690228164
 21
5751376.527910830453038
 31
10.800000000000001
100
AcDbText
 73
     2
  0
LWPOLYLINE
  5
30D8A
100
AcDbEntity
  8
SUPE04
  6
CONTINUOUS
 62
   256
 48
1.000000000000000
370
    -1
100
AcDbPolyline
 90
        5
 70
     0
 43
0.000000000000000
 38
10.180000000000000
 10
6477043.450000000186265
 20
5751377.000000000000000
 42
0.000000000000000
 10
6477043.099999999627471
 20
5751377.629999999888241
 42
0.000000000000000
 10
6477038.790000000037253
 20
5751378.870000000111759
 42
0.000000000000000
 10
6477037.820000000298023
 20
5751379.139999999664724
 42
0.000000000000000
 10
6477035.780000000260770
 20
5751379.730000000447035
 42
0.000000000000000
  0
TEXT
  5
30D8B
100
AcDbEntity
  8
SUPE04_O
  6
CONTINUOUS
 62
   256
370
     0
100
AcDbText
 10
6477040.355464260093868
 20
5751378.471075899899006
 30
10.800000000000001
 40
0.750000000000000
  1
eNB
 50
343.949305662991151
  7
GEO-INFO
 72
     1
 11
6477040.355464260093868
 21
5751378.471075899899006
 31
10.800000000000001
100
AcDbText
 73
     2
  0
LWPOLYLINE
  5
30D8C
100
AcDbEntity
  8
SUPE04
  6
CONTINUOUS
 62
   256
 48
1.000000000000000
370
    -1
100
AcDbPolyline
 90
        5
 70
     0
 43
0.000000000000000
 38
10.180000000000000
 10
6477043.730000000447035
 20
5751377.929999999701977
 42
0.000000000000000
 10
6477043.099999999627471
 20
5751377.629999999888241
 42
0.000000000000000
 10
6477038.790000000037253
 20
5751378.870000000111759
 42
0.000000000000000
 10
6477037.820000000298023
 20
5751379.139999999664724
 42
0.000000000000000
 10
6477035.780000000260770
 20
5751379.730000000447035
 42
0.000000000000000
  0
LWPOLYLINE
  5
30D8D
100
AcDbEntity
  8
SUPE04
  6
CONTINUOUS
 62
   256
 48
1.000000000000000
370
    -1
100
AcDbPolyline
 90
        9
 70
     0
 43
0.000000000000000
 38
10.180000000000000
 10
6477046.230000000447035
 20
5751382.950000000186265
 42
0.000000000000000
 10
6477044.629999999888241
 20
5751380.919999999925494
 42
0.000000000000000
 10
6477043.730000000447035
 20
5751377.929999999701977
 42
0.000000000000000
 10
6477043.450000000186265
 20
5751377.000000000000000
 42
0.000000000000000
 10
6477041.940000000409782
 20
5751371.740000000223517
 42
0.000000000000000
 10
6477039.429999999701977
 20
5751362.959999999962747
 42
0.095969080240620
 10
6477039.389999999664724
 20
5751360.870000000111759
 42
0.258634421634270
 10
6477042.750000000000000
 20
5751356.709999999962747
 42
0.000000000000000
 10
6477054.940000000409782
 20
5751353.179999999701977
 42
0.000000000000000
  0
TEXT
  5
30D8E
100
AcDbEntity
  8
SUPE04_O
  6
CONTINUOUS
 62
   256
370
     0
100
AcDbText
 10
6477045.995577249675989
 20
5751355.804739619605243
 30
10.800000000000001
 40
0.750000000000000
  1
eNB
 50
343.849953731324149
  7
GEO-INFO
 72
     1
 11
6477045.995577249675989
 21
5751355.804739619605243
 31
10.800000000000001
100
AcDbText
 73
     2
  0
LWPOLYLINE
  5
30D8F
100
AcDbEntity
  8
SUPW01
  6
CONTINUOUS
 62
   256
 48
1.000000000000000
370
    -1
100
AcDbPolyline
 90
        2
 70
     0
 43
0.000000000000000
 38
10.180000000000000
 10
6477041.599999999627471
 20
5751376.459999999962747
 42
0.000000000000000
 10
6477043.230000000447035
 20
5751375.990000000223517
 42
0.000000000000000
  0
LWPOLYLINE
  5
30D90
100
AcDbEntity
  8
SUPW01
  6
CONTINUOUS
 62
   256
 48
1.000000000000000
370
    -1
100
AcDbPolyline
 90
        4
 70
     0
 43
0.000000000000000
 38
10.180000000000000
 10
6477023.250000000000000
 20
5751365.299999999813735
 42
0.000000000000000
 10
6477027.309999999590218
 20
5751364.120000000111759
 42
0.000000000000000
 10
6477028.549999999813735
 20
5751364.809999999590218
 42
0.000000000000000
 10
6477028.820000000298023
 20
5751365.780000000260770
 42
0.000000000000000
  0
TEXT
  5
30D91
100
AcDbEntity
  8
SUPW01_O
  6
CONTINUOUS
 62
   256
370
     0
100
AcDbText
 10
6477025.279999999329448
 20
5751364.709999999962747
 30
10.800000000000001
 40
0.750000000000000
  1
woB
 50
343.794001313334036
  7
GEO-INFO
 72
     1
 11
6477025.279999999329448
 21
5751364.709999999962747
 31
10.800000000000001
100
AcDbText
 73
     2
  0
LWPOLYLINE
  5
30D92
100
AcDbEntity
  8
SUPW01
  6
CONTINUOUS
 62
   256
 48
1.000000000000000
370
    -1
100
AcDbPolyline
 90
        4
 70
     0
 43
0.000000000000000
 38
10.180000000000000
 10
6477038.000000000000000
 20
5751363.969999999739230
 42
0.000000000000000
 10
6477033.019999999552965
 20
5751365.400000000372529
 42
0.000000000000000
 10
6477031.580000000074506
 20
5751365.820000000298023
 42
0.000000000000000
 10
6477030.360000000335276
 20
5751366.169999999925494
 42
0.000000000000000
  0
TEXT
  5
30D93
100
AcDbEntity
  8
SUPW01_O
  6
CONTINUOUS
 62
   256
370
     0
100
AcDbText
 10
6477034.773080320097506
 20
5751364.955203879624605
 30
10.800000000000001
 40
0.750000000000000
  1
woB
 50
343.978648155665553
  7
GEO-INFO
 72
     1
 11
6477034.773080320097506
 21
5751364.955203879624605
 31
10.800000000000001
100
AcDbText
 73
     2
  0
LWPOLYLINE
  5
30D94
100
AcDbEntity
  8
SUPW01
  6
CONTINUOUS
 62
   256
 48
1.000000000000000
370
    -1
100
AcDbPolyline
 90
        2
 70
     0
 43
0.000000000000000
 38
10.180000000000000
 10
6477038.000000000000000
 20
5751363.969999999739230
 42
0.000000000000000
 10
6477042.549999999813735
 20
5751362.650000000372529
 42
0.000000000000000
  0
LWPOLYLINE
  5
30D95
100
AcDbEntity
  8
SUPW01
  6
CONTINUOUS
 62
   256
 48
1.000000000000000
370
    -1
100
AcDbPolyline
 90
        2
 70
     0
 43
0.000000000000000
 38
10.180000000000000
 10
6477036.049999999813735
 20
5751357.169999999925494
 42
0.000000000000000
 10
6477035.049999999813735
 20
5751353.690000000409782
 42
0.000000000000000
  0
TEXT
  5
30D96
100
AcDbEntity
  8
SUPW01_O
  6
CONTINUOUS
 62
   256
370
     0
100
AcDbText
 10
6477035.408074730075896
 20
5751354.895050900056958
 30
10.800000000000001
 40
0.750000000000000
  1
woB
 50
73.967660885769149
  7
GEO-INFO
 72
     1
 11
6477035.408074730075896
 21
5751354.895050900056958
 31
10.800000000000001
100
AcDbText
 73
     2
  0
LWPOLYLINE
  5
30D97
100
AcDbEntity
  8
SUPW01
  6
CONTINUOUS
 62
   256
 48
1.000000000000000
370
    -1
100
AcDbPolyline
 90
        2
 70
     0
 43
0.000000000000000
 38
10.180000000000000
 10
6477051.219999999739230
 20
5751352.799999999813735
 42
0.000000000000000
 10
6477050.400000000372529
 20
5751349.269999999552965
 42
0.000000000000000
  0
TEXT
  5
30D98
100
AcDbEntity
  8
SUPW01_O
  6
CONTINUOUS
 62
   256
370
     0
100
AcDbText
 10
6477050.711744040250778
 20
5751350.617412179708481
 30
10.800000000000001
 40
0.750000000000000
  1
woB
 50
76.922441701851682
  7
GEO-INFO
 72
     1
 11
6477050.711744040250778
 21
5751350.617412179708481
 31
10.800000000000001
100
AcDbText
 73
     2
  0
LWPOLYLINE
  5
30D99
100
AcDbEntity
  8
SUPW01
  6
CONTINUOUS
 62
   256
 48
1.000000000000000
370
    -1
100
AcDbPolyline
 90
        5
 70
     0
 43
0.000000000000000
 38
10.180000000000000
 10
6477045.490000000223517
 20
5751389.980000000447035
 42
0.000000000000000
 10
6477041.599999999627471
 20
5751376.459999999962747
 42
0.000000000000000
 10
6477038.000000000000000
 20
5751363.969999999739230
 42
0.000000000000000
 10
6477036.049999999813735
 20
5751357.169999999925494
 42
0.000000000000000
 10
6477051.219999999739230
 20
5751352.799999999813735
 42
0.000000000000000
  0
TEXT
  5
30D9A
100
AcDbEntity
  8
SUPW01_O
  6
CONTINUOUS
 62
   256
370
     0
100
AcDbText
 10
6477045.239847290329635
 20
5751354.570141520351171
 30
10.800000000000001
 40
0.750000000000000
  1
woB
 50
343.929969397450861
  7
GEO-INFO
 72
     1
 11
6477045.239847290329635
 21
5751354.570141520351171
 31
10.800000000000001
100
AcDbText
 73
     2
  0
INSERT
  5
30D9B
100
AcDbEntity
  8
SUPE02
  6
BYLAYER
 62
   256
 48
1.000000000000000
370
     5
100
AcDbBlockReference
  2
SUPE02N_1
 10
6477105.957852349616587
 20
5751381.903691279701889
 30
10.180000000000000
 41
0.500000000000000
 42
0.500000000000000
 43
1.000000000000000
 50
330.434819909812802
  0
INSERT
  5
30D9C
100
AcDbEntity
  8
SUPE02
  6
BYLAYER
 62
   256
 48
1.000000000000000
370
     5
100
AcDbBlockReference
  2
SUPE02N_1
 10
6477105.957852349616587
 20
5751381.903691279701889
 30
10.180000000000000
 41
0.500000000000000
 42
0.500000000000000
 43
1.000000000000000
 50
160.102654549214094
  0
TEXT
  5
30D9D
100
AcDbEntity
  8
SUPE02_O
  6
CONTINUOUS
 62
   256
370
     0
100
AcDbText
 10
6477043.248875520192087
 20
5751404.600737982429564
 30
10.800000000000001
 40
0.750000000000000
  1
RneW
 50
160.102654549214094
  7
GEO-INFO
 72
     1
 11
6477043.248875520192087
 21
5751404.600737982429564
 31
10.800000000000001
100
AcDbText
 73
     2
  0
LWPOLYLINE
  5
30D9E
100
AcDbEntity
  8
EGBD03
  6
CONTINUOUS
 62
   256
 48
1.000000000000000
370
    -1
100
AcDbPolyline
 90
        7
 70
     0
 43
0.000000000000000
 38
10.300000000000001
 10
6477122.840534318238497
 20
5751327.693937206640840
 42
0.000000000000000
 10
6477118.019999999552965
 20
5751329.110000000335276
 42
0.000000000000000
 10
6477132.780000000260770
 20
5751380.459999999962747
 42
0.000000000000000
 10
6477083.280000000260770
 20
5751394.690000000409782
 42
0.000000000000000
 10
6477025.440000000409782
 20
5751411.320000000298023
 42
0.000000000000000
 10
6477025.980000000447035
 20
5751413.719999999739230
 42
0.000000000000000
 10
6477029.363614300265908
 20
5751422.436423746868968
 42
0.000000000000000
  0
TEXT
  5
30D9F
100
AcDbEntity
  8
EGBD03_O
  6
CONTINUOUS
 62
   256
370
     0
100
AcDbText
 10
6477083.794549547135830
 20
5751403.540985041297972
 30
10.800000000000001
 40
1.250000000000000
  1
18/7
 50
0.000000000000000
  7
GEO-INFO
 72
     1
 11
6477083.794549547135830
 21
5751403.540985041297972
 31
10.800000000000001
100
AcDbText
 73
     2
  0
LWPOLYLINE
  5
30DA0
100
AcDbEntity
  8
EGBD03
  6
CONTINUOUS
 62
   256
 48
1.000000000000000
370
    -1
100
AcDbPolyline
 90
        4
 70
     0
 43
0.000000000000000
 38
10.300000000000001
 10
6476998.123603122308850
 20
5751316.004297771491110
 42
0.000000000000000
 10
6476998.530000000260770
 20
5751317.740000000223517
 42
0.000000000000000
 10
6477020.179999999701977
 20
5751415.259999999776483
 42
0.000000000000000
 10
6477023.253896526060998
 20
5751423.547281523235142
 42
0.000000000000000
  0
LWPOLYLINE
  5
30DA1
100
AcDbEntity
  8
EGBD03
  6
CONTINUOUS
 62
   256
 48
1.000000000000000
370
    -1
100
AcDbPolyline
 90
        8
 70
     0
 43
0.000000000000000
 38
10.300000000000001
 10
6477029.363614300265908
 20
5751422.436423746868968
 42
0.000000000000000
 10
6477025.980000000447035
 20
5751413.719999999739230
 42
0.000000000000000
 10
6477025.440000000409782
 20
5751411.320000000298023
 42
0.000000000000000
 10
6477013.820000000298023
 20
5751359.690000000409782
 42
0.000000000000000
 10
6477009.290000000037253
 20
5751338.950000000186265
 42
0.000000000000000
 10
6477007.150000000372529
 20
5751329.160000000149012
 42
0.000000000000000
 10
6477004.360000000335276
 20
5751316.400000000372529
 42
0.000000000000000
 10
6477003.896165641956031
 20
5751314.853685648180544
 42
0.000000000000000
  0
TEXT
  5
30DA2
100
AcDbEntity
  8
EGBD03_O
  6
CONTINUOUS
 62
   256
370
     0
100
AcDbText
 10
6477013.743608698248863
 20
5751372.804124517366290
 30
10.800000000000001
 40
1.250000000000000
  1
16
 50
0.000000000000000
  7
GEO-INFO
 72
     1
 11
6477013.743608698248863
 21
5751372.804124517366290
 31
10.800000000000001
100
AcDbText
 73
     2
  0
LWPOLYLINE
  5
30DA3
100
AcDbEntity
  8
GESKLU
  6
PRZER3-1
 62
   256
 48
0.500000000000000
370
    18
100
AcDbPolyline
 90
        7
 70
     0
 43
0.000000000000000
 38
0.000000000000000
 10
6477025.980000000447035
 20
5751413.719999999739230
 42
0.000000000000000
 10
6477025.440000000409782
 20
5751411.320000000298023
 42
0.000000000000000
 10
6477013.820000000298023
 20
5751359.690000000409782
 42
0.000000000000000
 10
6477009.290000000037253
 20
5751338.950000000186265
 42
0.000000000000000
 10
6477007.150000000372529
 20
5751329.160000000149012
 42
0.000000000000000
 10
6477004.360000000335276
 20
5751316.400000000372529
 42
0.000000000000000
 10
6477003.896165641956031
 20
5751314.853685648180544
 42
0.000000000000000
  0
LWPOLYLINE
  5
30DA4
100
AcDbEntity
  8
GESKLU
  6
PRZER3-1
 62
   256
 48
0.500000000000000
370
    18
100
AcDbPolyline
 90
        2
 70
     0
 43
0.000000000000000
 38
0.000000000000000
 10
6477029.363614300265908
 20
5751422.436423746868968
 42
0.000000000000000
 10
6477025.980000000447035
 20
5751413.719999999739230
 42
0.000000000000000
  0
TEXT
  5
30DA5
100
AcDbEntity
  8
GESKLU_O
  6
CONTINUOUS
 62
   256
370
     0
100
AcDbText
 10
6477073.022632349282503
 20
5751357.786759907379746
 30
10.800000000000001
 40
1.250000000000000
  1
RV
 50
359.999997495521825
  7
GEO-INFO
 72
     1
 11
6477073.022632349282503
 21
5751357.786759907379746
 31
10.800000000000001
100
AcDbText
 73
     2
  0
TEXT
  5
30DA6
100
AcDbEntity
  8
GESKLU_O
  6
CONTINUOUS
 62
   256
370
     0
100
AcDbText
 10
6477073.022632349282503
 20
5751357.786759907379746
 30
10.800000000000001
 40
1.250000000000000
  1
RV
 50
359.999997495521825
  7
GEO-INFO
 72
     1
 11
6477073.022632349282503
 21
5751357.786759907379746
 31
10.800000000000001
100
AcDbText
 73
     2
  0
TEXT
  5
30DA7
100
AcDbEntity
  8
GESKLU_O
  6
CONTINUOUS
 62
   256
370
     0
100
AcDbText
 10
6477073.022632349282503
 20
5751357.786759907379746
 30
10.800000000000001
 40
1.250000000000000
  1
RV
 50
359.999997495521825
  7
GEO-INFO
 72
     1
 11
6477073.022632349282503
 21
5751357.786759907379746
 31
10.800000000000001
100
AcDbText
 73
     2
  0
TEXT
  5
30DA8
100
AcDbEntity
  8
GESKLU_O
  6
CONTINUOUS
 62
   256
370
     0
100
AcDbText
 10
6477073.022632349282503
 20
5751357.786759907379746
 30
10.800000000000001
 40
1.250000000000000
  1
RV
 50
359.999997495521825
  7
GEO-INFO
 72
     1
 11
6477073.022632349282503
 21
5751357.786759907379746
 31
10.800000000000001
100
AcDbText
 73
     2
  0
TEXT
  5
30DA9
100
AcDbEntity
  8
GESKLU_O
  6
CONTINUOUS
 62
   256
370
     0
100
AcDbText
 10
6477094.458157200366259
 20
5751343.963889709673822
 30
10.800000000000001
 40
1.250000000000000
  1
RV
 50
359.999997495521825
  7
GEO-INFO
 72
     1
 11
6477094.458157200366259
 21
5751343.963889709673822
 31
10.800000000000001
100
AcDbText
 73
     2
  0
TEXT
  5
30DAA
100
AcDbEntity
  8
GESKLU_O
  6
CONTINUOUS
 62
   256
370
     0
100
AcDbText
 10
6477046.146163829602301
 20
5751364.109431340359151
 30
10.800000000000001
 40
1.250000000000000
  1
RV
 50
359.999997495521825
  7
GEO-INFO
 72
     1
 11
6477046.146163829602301
 21
5751364.109431340359151
 31
10.800000000000001
100
AcDbText
 73
     2
  0
LWPOLYLINE
  5
30DAB
100
AcDbEntity
  8
GESKLU
  6
PRZER3-1
 62
   256
 48
0.500000000000000
370
    18
100
AcDbPolyline
 90
        8
 70
     0
 43
0.000000000000000
 38
0.000000000000000
 10
6477029.363614300265908
 20
5751422.436423746868968
 42
0.000000000000000
 10
6477025.980000000447035
 20
5751413.719999999739230
 42
0.000000000000000
 10
6477025.440000000409782
 20
5751411.320000000298023
 42
0.000000000000000
 10
6477013.820000000298023
 20
5751359.690000000409782
 42
0.000000000000000
 10
6477009.290000000037253
 20
5751338.950000000186265
 42
0.000000000000000
 10
6477007.150000000372529
 20
5751329.160000000149012
 42
0.000000000000000
 10
6477004.360000000335276
 20
5751316.400000000372529
 42
0.000000000000000
 10
6477003.896165641956031
 20
5751314.853685648180544
 42
0.000000000000000
  0
LWPOLYLINE
  5
30DAC
100
AcDbEntity
  8
GESKLU
  6
PRZER3-1
 62
   256
 48
0.500000000000000
370
    18
100
AcDbPolyline
 90
        4
 70
     0
 43
0.000000000000000
 38
0.000000000000000
 10
6476998.123603122308850
 20
5751316.004297771491110
 42
0.000000000000000
 10
6476998.530000000260770
 20
5751317.740000000223517
 42
0.000000000000000
 10
6477020.179999999701977
 20
5751415.259999999776483
 42
0.000000000000000
 10
6477023.253896526060998
 20
5751423.547281523235142
 42
0.000000000000000
  0
TEXT
  5
30DAD
100
AcDbEntity
  8
GESKLU_O
  6
CONTINUOUS
 62
   256
370
     0
100
AcDbText
 10
6477013.743608698248863
 20
5751372.804124517366290
 30
10.800000000000001
 40
1.250000000000000
  1
dr
 50
0.000000000000000
  7
GEO-INFO
 72
     1
 11
6477013.743608698248863
 21
5751372.804124517366290
 31
10.800000000000001
100
AcDbText
 73
     2
  0
TEXT
  5
30DAE
100
AcDbEntity
  8
GESJPO_O
  6
CONTINUOUS
 62
   256
370
     0
100
AcDbText
 10
6477049.803744576871395
 20
5751362.211612444370985
 30
10.800000000000001
 40
1.750000000000000
  1
3006
 50
0.000000000000000
  7
GEO-INFO
 72
     1
 11
6477049.803744576871395
 21
5751362.211612444370985
 31
10.800000000000001
100
AcDbText
 73
     2
  0
LWPOLYLINE
  5
30DAF
100
AcDbEntity
  8
EGBD03
  6
CONTINUOUS
 62
   256
 48
1.000000000000000
370
    -1
100
AcDbPolyline
 90
        4
 70
     0
 43
0.000000000000000
 38
10.300000000000001
 10
6476993.580064923502505
 20
5751428.942523633129895
 42
0.000000000000000
 10
6476992.395043659955263
 20
5751424.208710310049355
 42
0.000000000000000
 10
6476973.155072519555688
 20
5751326.203772800043225
 42
0.000000000000000
 10
6476972.349095208570361
 20
5751321.141784146428108
 42
0.000000000000000
  0
LWPOLYLINE
  5
30DB0
100
AcDbEntity
  8
EGBD03
  6
CONTINUOUS
 62
   256
 48
1.000000000000000
370
    -1
100
AcDbPolyline
 90
        6
 70
     0
 43
0.000000000000000
 38
10.300000000000001
 10
6476966.740329948253930
 20
5751322.259747492149472
 42
0.000000000000000
 10
6476969.955643920227885
 20
5751339.848249180242419
 42
0.000000000000000
 10
6476970.119295950047672
 20
5751340.843798990361392
 42
0.000000000000000
 10
6476975.343160780146718
 20
5751367.726661030203104
 42
0.000000000000000
 10
6476986.611133590340614
 20
5751425.294081410393119
 42
0.000000000000000
 10
6476987.716031651943922
 20
5751430.008711501024663
 42
0.000000000000000
  0
TEXT
  5
30DB1
100
AcDbEntity
  8
EGBD03_O
  6
CONTINUOUS
 62
   256
370
     0
100
AcDbText
 10
6476980.160197422839701
 20
5751377.111617982387543
 30
10.800000000000001
 40
1.250000000000000
  1
10
 50
0.000000000000000
  7
GEO-INFO
 72
     1
 11
6476980.160197422839701
 21
5751377.111617982387543
 31
10.800000000000001
100
AcDbText
 73
     2
  0
TEXT
  5
30DB2
100
AcDbEntity
  8
EGBJ01_O
  6
CONTINUOUS
 62
   256
370
     0
100
AcDbText
 10
6477049.803744576871395
 20
5751362.211612444370985
 30
10.800000000000001
 40
1.750000000000000
  1
Gmina Kotlin
 50
0.000000000000000
  7
GEO-INFO
 72
     1
 11
6477049.803744576871395
 21
5751362.211612444370985
 31
10.800000000000001
100
AcDbText
 73
     2
  0
LWPOLYLINE
  5
30DB3
100
AcDbEntity
  8
EGBD03
  6
CONTINUOUS
 62
   256
 48
1.000000000000000
370
    -1
100
AcDbPolyline
 90
        7
 70
     1
 43
0.000000000000000
 38
10.300000000000001
 10
6477009.290000000037253
 20
5751338.950000000186265
 42
0.000000000000000
 10
6477062.839999999850988
 20
5751323.559999999590218
 42
0.000000000000000
 10
6477083.280000000260770
 20
5751394.690000000409782
 42
0.000000000000000
 10
6477132.780000000260770
 20
5751380.459999999962747
 42
0.000000000000000
 10
6477118.019999999552965
 20
5751329.110000000335276
 42
0.000000000000000
 10
6477109.570000000298023
 20
5751299.719999999739230
 42
0.000000000000000
 10
6477007.150000000372529
 20
5751329.160000000149012
 42
0.000000000000000
  0
TEXT
  5
30DB4
100
AcDbEntity
  8
EGBD03_O
  6
CONTINUOUS
 62
   256
370
     0
100
AcDbText
 10
6477094.255714810453355
 20
5751346.973318270407617
 30
10.800000000000001
 40
1.250000000000000
  1
125/2
 50
359.999997495521825
  7
GEO-INFO
 72
     1
 11
6477094.255714810453355
 21
5751346.973318270407617
 31
10.800000000000001
100
AcDbText
 73
     2
  0
LWPOLYLINE
  5
30DB5
100
AcDbEntity
  8
EGBD03
  6
CONTINUOUS
 62
   256
 48
1.000000000000000
370
    -1
100
AcDbPolyline
 90
        5
 70
     1
 43
0.000000000000000
 38
10.300000000000001
 10
6477013.820000000298023
 20
5751359.690000000409782
 42
0.000000000000000
 10
6477025.440000000409782
 20
5751411.320000000298023
 42
0.000000000000000
 10
6477083.280000000260770
 20
5751394.690000000409782
 42
0.000000000000000
 10
6477062.839999999850988
 20
5751323.559999999590218
 42
0.000000000000000
 10
6477009.290000000037253
 20
5751338.950000000186265
 42
0.000000000000000
  0
TEXT
  5
30DB6
100
AcDbEntity
  8
EGBD03_O
  6
CONTINUOUS
 62
   256
370
     0
100
AcDbText
 10
6477046.285000000149012
 20
5751366.822262819856405
 30
10.800000000000001
 40
1.250000000000000
  1
125/1
 50
0.000000000000000
  7
GEO-INFO
 72
     1
 11
6477046.285000000149012
 21
5751366.822262819856405
 31
10.800000000000001
100
AcDbText
 73
     2
  0
LWPOLYLINE
  5
30DB7
100
AcDbEntity
  8
EGBD03
  6
CONTINUOUS
 62
   256
 48
1.000000000000000
370
    -1
100
AcDbPolyline
 90
        4
 70
     0
 43
0.000000000000000
 38
10.300000000000001
 10
6477007.150000000372529
 20
5751329.160000000149012
 42
0.000000000000000
 10
6477109.570000000298023
 20
5751299.719999999739230
 42
0.000000000000000
 10
6477118.019999999552965
 20
5751329.110000000335276
 42
0.000000000000000
 10
6477122.840534318238497
 20
5751327.693937206640840
 42
0.000000000000000
  0
LWPOLYLINE
  5
30DB8
100
AcDbEntity
  8
EGBD03
  6
CONTINUOUS
 62
   256
 48
1.000000000000000
370
    -1
100
AcDbPolyline
 90
        3
 70
     0
 43
0.000000000000000
 38
10.300000000000001
 10
6477003.896165641956031
 20
5751314.853685648180544
 42
0.000000000000000
 10
6477004.360000000335276
 20
5751316.400000000372529
 42
0.000000000000000
 10
6477007.150000000372529
 20
5751329.160000000149012
 42
0.000000000000000
  0
TEXT
  5
30DB9
100
AcDbEntity
  8
EGBD03_O
  6
CONTINUOUS
 62
   256
370
     0
100
AcDbText
 10
6477063.368349948897958
 20
5751307.999906600452960
 30
10.800000000000001
 40
1.250000000000000
  1
19/2
 50
0.000000000000000
  7
GEO-INFO
 72
     1
 11
6477063.368349948897958
 21
5751307.999906600452960
 31
10.800000000000001
100
AcDbText
 73
     2
  0
LWPOLYLINE
  5
30DBA
100
AcDbEntity
  8
EGBD03
  6
CONTINUOUS
 62
   256
 48
1.000000000000000
370
    -1
100
AcDbPolyline
 90
        4
 70
     0
 43
0.000000000000000
 38
10.300000000000001
 10
6477023.253896526060998
 20
5751423.547281523235142
 42
0.000000000000000
 10
6477020.179999999701977
 20
5751415.259999999776483
 42
0.000000000000000
 10
6476992.395043659955263
 20
5751424.208710310049355
 42
0.000000000000000
 10
6476993.580064923502505
 20
5751428.942523633129895
 42
0.000000000000000
  0
TEXT
  5
30DBB
100
AcDbEntity
  8
EGBD03_O
  6
CONTINUOUS
 62
   256
370
     0
100
AcDbText
 10
6477007.824470093473792
 20
5751422.795990743674338
 30
10.800000000000001
 40
1.250000000000000
  1
13
 50
0.000000000000000
  7
GEO-INFO
 72
     1
 11
6477007.824470093473792
 21
5751422.795990743674338
 31
10.800000000000001
100
AcDbText
 73
     2
  0
LWPOLYLINE
  5
30DBC
100
AcDbEntity
  8
EGBD03
  6
CONTINUOUS
 62
   256
 48
1.000000000000000
370
    -1
100
AcDbPolyline
 90
        2
 70
     0
 43
0.000000000000000
 38
10.300000000000001
 10
6476970.119295950047672
 20
5751340.843798990361392
 42
0.000000000000000
 10
6476961.678919453173876
 20
5751342.978112801909447
 42
0.000000000000000
  0
LWPOLYLINE
  5
30DBD
100
AcDbEntity
  8
EGBD03
  6
CONTINUOUS
 62
   256
 48
1.000000000000000
370
    -1
100
AcDbPolyline
 90
        3
 70
     0
 43
0.000000000000000
 38
10.300000000000001
 10
6476967.645868328399956
 20
5751369.653884242288768
 42
0.000000000000000
 10
6476975.343160780146718
 20
5751367.726661030203104
 42
0.000000000000000
 10
6476970.119295950047672
 20
5751340.843798990361392
 42
0.000000000000000
  0
TEXT
  5
30DBE
100
AcDbEntity
  8
EGBD03_O
  6
CONTINUOUS
 62
   256
370
     0
100
AcDbText
 10
6476968.511040105484426
 20
5751355.343871570192277
 30
10.800000000000001
 40
1.250000000000000
  1
3/1
 50
0.000000000000000
  7
GEO-INFO
 72
     1
 11
6476968.511040105484426
 21
5751355.343871570192277
 31
10.800000000000001
100
AcDbText
 73
     2
  0
LWPOLYLINE
  5
30DBF
100
AcDbEntity
  8
EGBD03
  6
CONTINUOUS
 62
   256
 48
1.000000000000000
370
    -1
100
AcDbPolyline
 90
        4
 70
     0
 43
0.000000000000000
 38
10.300000000000001
 10
6476972.349095208570361
 20
5751321.141784146428108
 42
0.000000000000000
 10
6476973.155072519555688
 20
5751326.203772800043225
 42
0.000000000000000
 10
6476998.530000000260770
 20
5751317.740000000223517
 42
0.000000000000000
 10
6476998.123603122308850
 20
5751316.004297771491110
 42
0.000000000000000
  0
TEXT
  5
30DC0
100
AcDbEntity
  8
EGBD03_O
  6
CONTINUOUS
 62
   256
370
     0
100
AcDbText
 10
6476985.439547579735518
 20
5751320.319420614279807
 30
10.800000000000001
 40
1.250000000000000
  1
11
 50
0.000000000000000
  7
GEO-INFO
 72
     1
 11
6476985.439547579735518
 21
5751320.319420614279807
 31
10.800000000000001
100
AcDbText
 73
     2
  0
LWPOLYLINE
  5
30DC1
100
AcDbEntity
  8
EGBD03
  6
CONTINUOUS
 62
   256
 48
1.000000000000000
370
    -1
100
AcDbPolyline
 90
        4
 70
     0
 43
0.000000000000000
 38
10.300000000000001
 10
6476961.678919453173876
 20
5751342.978112801909447
 42
0.000000000000000
 10
6476970.119295950047672
 20
5751340.843798990361392
 42
0.000000000000000
 10
6476969.955643920227885
 20
5751339.848249180242419
 42
0.000000000000000
 10
6476961.460072671063244
 20
5751341.999738951213658
 42
0.000000000000000
  0
TEXT
  5
30DC2
100
AcDbEntity
  8
EGBD03_O
  6
CONTINUOUS
 62
   256
370
     0
100
AcDbText
 10
6476965.789684289135039
 20
5751341.420948712155223
 30
10.800000000000001
 40
1.250000000000000
  1
3/5
 50
0.000000000000000
  7
GEO-INFO
 72
     1
 11
6476965.789684289135039
 21
5751341.420948712155223
 31
10.800000000000001
100
AcDbText
 73
     2
  0
LWPOLYLINE
  5
30DC3
100
AcDbEntity
  8
EGBD03
  6
CONTINUOUS
 62
   256
 48
1.000000000000000
370
    -1
100
AcDbPolyline
 90
        3
 70
     0
 43
0.000000000000000
 38
10.300000000000001
 10
6476961.460072671063244
 20
5751341.999738951213658
 42
0.000000000000000
 10
6476969.955643920227885
 20
5751339.848249180242419
 42
0.000000000000000
 10
6476966.740329948253930
 20
5751322.259747492149472
 42
0.000000000000000
  0
TEXT
  5
30DC4
100
AcDbEntity
  8
EGBD03_O
  6
CONTINUOUS
 62
   256
370
     0
100
AcDbText
 10
6476963.707016982138157
 20
5751332.147532200440764
 30
10.800000000000001
 40
1.250000000000000
  1
3/2
 50
0.000000000000000
  7
GEO-INFO
 72
     1
 11
6476963.707016982138157
 21
5751332.147532200440764
 31
10.800000000000001
100
AcDbText
 73
     2
  0
LWPOLYLINE
  5
30DC5
100
AcDbEntity
  8
EGBD03
  6
CONTINUOUS
 62
   256
 48
1.000000000000000
370
    -1
100
AcDbPolyline
 90
        4
 70
     1
 43
0.000000000000000
 38
10.300000000000001
 10
6476998.530000000260770
 20
5751317.740000000223517
 42
0.000000000000000
 10
6476973.155072519555688
 20
5751326.203772800043225
 42
0.000000000000000
 10
6476992.395043659955263
 20
5751424.208710310049355
 42
0.000000000000000
 10
6477020.179999999701977
 20
5751415.259999999776483
 42
0.000000000000000
  0
TEXT
  5
30DC6
100
AcDbEntity
  8
EGBD03_O
  6
CONTINUOUS
 62
   256
370
     0
100
AcDbText
 10
6476991.907827533781528
 20
5751352.504452073015273
 30
10.800000000000001
 40
1.250000000000000
  1
12
 50
0.000000000000000
  7
GEO-INFO
 72
     1
 11
6476991.907827533781528
 21
5751352.504452073015273
 31
10.800000000000001
100
AcDbText
 73
     2
  0
LWPOLYLINE
  5
30DC7
100
AcDbEntity
  8
EGBD03
  6
CONTINUOUS
 62
   256
 48
1.000000000000000
370
    -1
100
AcDbPolyline
 90
        2
 70
     0
 43
0.000000000000000
 38
10.300000000000001
 10
6476975.343160780146718
 20
5751367.726661030203104
 42
0.000000000000000
 10
6476967.645868328399956
 20
5751369.653884242288768
 42
0.000000000000000
  0
LWPOLYLINE
  5
30DC8
100
AcDbEntity
  8
EGBD03
  6
CONTINUOUS
 62
   256
 48
1.000000000000000
370
    -1
100
AcDbPolyline
 90
        3
 70
     0
 43
0.000000000000000
 38
10.300000000000001
 10
6476987.716031651943922
 20
5751430.008711501024663
 42
0.000000000000000
 10
6476986.611133590340614
 20
5751425.294081410393119
 42
0.000000000000000
 10
6476975.343160780146718
 20
5751367.726661030203104
 42
0.000000000000000
  0
TEXT
  5
30DC9
100
AcDbEntity
  8
EGBD03_O
  6
CONTINUOUS
 62
   256
370
     0
100
AcDbText
 10
6476977.680949980393052
 20
5751397.093446455895901
 30
10.800000000000001
 40
1.250000000000000
  1
4
 50
0.000000000000000
  7
GEO-INFO
 72
     1
 11
6476977.680949980393052
 21
5751397.093446455895901
 31
10.800000000000001
100
AcDbText
 73
     2
  0
LWPOLYLINE
  5
30DCA
100
AcDbEntity
  8
GESKLU
  6
PRZER3-1
 62
   256
 48
0.500000000000000
370
    18
100
AcDbPolyline
 90
        4
 70
     0
 43
0.000000000000000
 38
0.000000000000000
 10
6476993.580064923502505
 20
5751428.942523633129895
 42
0.000000000000000
 10
6476992.395043659955263
 20
5751424.208710310049355
 42
0.000000000000000
 10
6476973.155072519555688
 20
5751326.203772800043225
 42
0.000000000000000
 10
6476972.349095208570361
 20
5751321.141784146428108
 42
0.000000000000000
  0
LWPOLYLINE
  5
30DCB
100
AcDbEntity
  8
GESKLU
  6
PRZER3-1
 62
   256
 48
0.500000000000000
370
    18
100
AcDbPolyline
 90
        4
 70
     0
 43
0.000000000000000
 38
0.000000000000000
 10
6476998.123603122308850
 20
5751316.004297771491110
 42
0.000000000000000
 10
6476998.530000000260770
 20
5751317.740000000223517
 42
0.000000000000000
 10
6477020.179999999701977
 20
5751415.259999999776483
 42
0.000000000000000
 10
6477023.253896526060998
 20
5751423.547281523235142
 42
0.000000000000000
  0
TEXT
  5
30DCC
100
AcDbEntity
  8
GESKLU_O
  6
CONTINUOUS
 62
   256
370
     0
100
AcDbText
 10
6476997.801495859399438
 20
5751372.121746145188808
 30
10.800000000000001
 40
1.250000000000000
  1
IV
 50
359.999997495521825
  7
GEO-INFO
 72
     1
 11
6476997.801495859399438
 21
5751372.121746145188808
 31
10.800000000000001
100
AcDbText
 73
     2
  0
TEXT
  5
30DCD
100
AcDbEntity
  8
GESKLU_O
  6
CONTINUOUS
 62
   256
370
     0
100
AcDbText
 10
6476997.801495859399438
 20
5751372.121746145188808
 30
10.800000000000001
 40
1.250000000000000
  1
IV
 50
359.999997495521825
  7
GEO-INFO
 72
     1
 11
6476997.801495859399438
 21
5751372.121746145188808
 31
10.800000000000001
100
AcDbText
 73
     2
  0
TEXT
  5
30DCE
100
AcDbEntity
  8
GESKLU_O
  6
CONTINUOUS
 62
   256
370
     0
100
AcDbText
 10
6476997.801495859399438
 20
5751372.121746145188808
 30
10.800000000000001
 40
1.250000000000000
  1
IV
 50
359.999997495521825
  7
GEO-INFO
 72
     1
 11
6476997.801495859399438
 21
5751372.121746145188808
 31
10.800000000000001
100
AcDbText
 73
     2
  0
LWPOLYLINE
  5
30DCF
100
AcDbEntity
  8
GESKLU
  6
PRZER3-1
 62
   256
 48
0.500000000000000
370
    18
100
AcDbPolyline
 90
        4
 70
     0
 43
0.000000000000000
 38
0.000000000000000
 10
6476972.349095208570361
 20
5751321.141784146428108
 42
0.000000000000000
 10
6476973.155072519555688
 20
5751326.203772800043225
 42
0.000000000000000
 10
6476992.395043659955263
 20
5751424.208710310049355
 42
0.000000000000000
 10
6476993.580064923502505
 20
5751428.942523633129895
 42
0.000000000000000
  0
LWPOLYLINE
  5
30DD0
100
AcDbEntity
  8
GESKLU
  6
PRZER3-1
 62
   256
 48
0.500000000000000
370
    18
100
AcDbPolyline
 90
        6
 70
     0
 43
0.000000000000000
 38
0.000000000000000
 10
6476987.716031651943922
 20
5751430.008711501024663
 42
0.000000000000000
 10
6476986.611133590340614
 20
5751425.294081410393119
 42
0.000000000000000
 10
6476975.343160780146718
 20
5751367.726661030203104
 42
0.000000000000000
 10
6476970.119295950047672
 20
5751340.843798990361392
 42
0.000000000000000
 10
6476969.955643920227885
 20
5751339.848249180242419
 42
0.000000000000000
 10
6476966.740329948253930
 20
5751322.259747492149472
 42
0.000000000000000
  0
TEXT
  5
30DD1
100
AcDbEntity
  8
GESKLU_O
  6
CONTINUOUS
 62
   256
370
     0
100
AcDbText
 10
6476980.160197422839701
 20
5751377.111617982387543
 30
10.800000000000001
 40
1.250000000000000
  1
Wp
 50
359.999997495521825
  7
GEO-INFO
 72
     1
 11
6476980.160197422839701
 21
5751377.111617982387543
 31
10.800000000000001
100
AcDbText
 73
     2
  0
TEXT
  5
30DD2
100
AcDbEntity
  8
GESKLU_O
  6
CONTINUOUS
 62
   256
370
     0
100
AcDbText
 10
6476980.160197422839701
 20
5751377.111617982387543
 30
10.800000000000001
 40
1.250000000000000
  1
Wp
 50
359.999997495521825
  7
GEO-INFO
 72
     1
 11
6476980.160197422839701
 21
5751377.111617982387543
 31
10.800000000000001
100
AcDbText
 73
     2
  0
LWPOLYLINE
  5
30DD3
100
AcDbEntity
  8
EGBP12_02
  6
CONTINUOUS
 62
   256
 48
1.000000000000000
370
    18
100
AcDbPolyline
 90
        4
 70
     1
 43
0.000000000000000
 38
0.000000000000000
 10
6477105.009999999776483
 20
5751384.599999999627471
 42
0.000000000000000
 10
6477108.679999999701977
 20
5751382.969999999739230
 42
0.000000000000000
 10
6477106.919999999925494
 20
5751379.190000000409782
 42
0.000000000000000
 10
6477103.200000000186265
 20
5751380.879999999888241
 42
0.000000000000000
  0
LWPOLYLINE
  5
30DD4
100
AcDbEntity
  8
GESKLU
  6
PRZER3-1
 62
   256
 48
0.500000000000000
370
    18
100
AcDbPolyline
 90
        7
 70
     0
 43
0.000000000000000
 38
0.000000000000000
 10
6476958.343872568570077
 20
5751328.068491435609758
 42
0.000000000000000
 10
6476963.555762520059943
 20
5751341.469008860178292
 42
0.000000000000000
 10
6476969.955643920227885
 20
5751339.848249180242419
 42
0.000000000000000
 10
6476970.119295950047672
 20
5751340.843798990361392
 42
0.000000000000000
 10
6476975.343160780146718
 20
5751367.726661030203104
 42
0.000000000000000
 10
6476986.611133590340614
 20
5751425.294081410393119
 42
0.000000000000000
 10
6476987.716031651943922
 20
5751430.008711501024663
 42
0.000000000000000
  0
TEXT
  5
30DD5
100
AcDbEntity
  8
GESKLU_O
  6
CONTINUOUS
 62
   256
370
     0
100
AcDbText
 10
6476973.029952102340758
 20
5751374.773208538070321
 30
10.800000000000001
 40
1.250000000000000
  1
RV
 50
0.000000000000000
  7
GEO-INFO
 72
     1
 11
6476973.029952102340758
 21
5751374.773208538070321
 31
10.800000000000001
100
AcDbText
 73
     2
  0
LWPOLYLINE
  5
30DD6
100
AcDbEntity
  8
GESKLU
  6
PRZER3-1
 62
   256
 48
0.500000000000000
370
    18
100
AcDbPolyline
 90
        2
 70
     0
 43
0.000000000000000
 38
0.000000000000000
 10
6476963.555762520059943
 20
5751341.469008860178292
 42
0.000000000000000
 10
6476958.343872568570077
 20
5751328.068491435609758
 42
0.000000000000000
  0
LWPOLYLINE
  5
30DD7
100
AcDbEntity
  8
GESKLU
  6
PRZER3-1
 62
   256
 48
0.500000000000000
370
    18
100
AcDbPolyline
 90
        3
 70
     0
 43
0.000000000000000
 38
0.000000000000000
 10
6476966.740329948253930
 20
5751322.259747492149472
 42
0.000000000000000
 10
6476969.955643920227885
 20
5751339.848249180242419
 42
0.000000000000000
 10
6476963.555762520059943
 20
5751341.469008860178292
 42
0.000000000000000
  0
TEXT
  5
30DD8
100
AcDbEntity
  8
GESKLU_O
  6
CONTINUOUS
 62
   256
370
     0
100
AcDbText
 10
6476963.707016982138157
 20
5751332.147532189264894
 30
10.800000000000001
 40
1.250000000000000
  1
IV
 50
0.000000000000000
  7
GEO-INFO
 72
     1
 11
6476963.707016982138157
 21
5751332.147532189264894
 31
10.800000000000001
100
AcDbText
 73
     2
  0
TEXT
  5
30DD9
100
AcDbEntity
  8
EGBO02_O
  6
CONTINUOUS
 62
   256
370
     0
100
AcDbText
 10
6477049.803744576871395
 20
5751362.211612444370985
 30
10.800000000000001
 40
1.750000000000000
  1
0004
 50
0.000000000000000
  7
GEO-INFO
 72
     1
 11
6477049.803744576871395
 21
5751362.211612444370985
 31
10.800000000000001
100
AcDbText
 73
     2
  0
TEXT
  5
30DDA
100
AcDbEntity
  8
GESJAE_O
  6
CONTINUOUS
 62
   256
370
     0
100
AcDbText
 10
6477049.803744576871395
 20
5751362.211612444370985
 30
10.800000000000001
 40
1.750000000000000
  1
Arkusz nr 1
 50
0.000000000000000
  7
GEO-INFO
 72
     1
 11
6477049.803744576871395
 21
5751362.211612444370985
 31
10.800000000000001
100
AcDbText
 73
     2
  0
LWPOLYLINE
  5
30DDB
100
AcDbEntity
  8
0
  6
CONTINUOUS
 62
     7
 48
1.000000000000000
370
    13
100
AcDbPolyline
 90
        2
 70
   128
 43
0.000000000000000
 38
100.000000000000000
 10
6477097.500000000000000
 20
5751300.000000000000000
 42
0.000000000000000
 10
6477102.500000000000000
 20
5751300.000000000000000
 42
0.000000000000000
  0
LWPOLYLINE
  5
30DDC
100
AcDbEntity
  8
0
  6
CONTINUOUS
 62
     7
 48
1.000000000000000
370
    13
100
AcDbPolyline
 90
        2
 70
   128
 43
0.000000000000000
 38
100.000000000000000
 10
6476997.500000000000000
 20
5751350.000000000000000
 42
0.000000000000000
 10
6477002.500000000000000
 20
5751350.000000000000000
 42
0.000000000000000
  0
LWPOLYLINE
  5
30DDD
100
AcDbEntity
  8
0
  6
CONTINUOUS
 62
     7
 48
1.000000000000000
370
    13
100
AcDbPolyline
 90
        2
 70
   128
 43
0.000000000000000
 38
100.000000000000000
 10
6477047.500000000000000
 20
5751350.000000000000000
 42
0.000000000000000
 10
6477052.500000000000000
 20
5751350.000000000000000
 42
0.000000000000000
  0
LWPOLYLINE
  5
30DDE
100
AcDbEntity
  8
0
  6
CONTINUOUS
 62
     7
 48
1.000000000000000
370
    13
100
AcDbPolyline
 90
        2
 70
   128
 43
0.000000000000000
 38
100.000000000000000
 10
6477097.500000000000000
 20
5751350.000000000000000
 42
0.000000000000000
 10
6477102.500000000000000
 20
5751350.000000000000000
 42
0.000000000000000
  0
LWPOLYLINE
  5
30DDF
100
AcDbEntity
  8
0
  6
CONTINUOUS
 62
     7
 48
1.000000000000000
370
    13
100
AcDbPolyline
 90
        2
 70
   128
 43
0.000000000000000
 38
100.000000000000000
 10
6476997.500000000000000
 20
5751400.000000000000000
 42
0.000000000000000
 10
6477002.500000000000000
 20
5751400.000000000000000
 42
0.000000000000000
  0
LWPOLYLINE
  5
30DE0
100
AcDbEntity
  8
0
  6
CONTINUOUS
 62
     7
 48
1.000000000000000
370
    13
100
AcDbPolyline
 90
        2
 70
   128
 43
0.000000000000000
 38
100.000000000000000
 10
6477047.500000000000000
 20
5751400.000000000000000
 42
0.000000000000000
 10
6477052.500000000000000
 20
5751400.000000000000000
 42
0.000000000000000
  0
LWPOLYLINE
  5
30DE1
100
AcDbEntity
  8
0
  6
CONTINUOUS
 62
     7
 48
1.000000000000000
370
    13
100
AcDbPolyline
 90
        2
 70
   128
 43
0.000000000000000
 38
100.000000000000000
 10
6477097.500000000000000
 20
5751400.000000000000000
 42
0.000000000000000
 10
6477102.500000000000000
 20
5751400.000000000000000
 42
0.000000000000000
  0
LWPOLYLINE
  5
30DE2
100
AcDbEntity
  8
0
  6
CONTINUOUS
 62
     7
 48
1.000000000000000
370
    13
100
AcDbPolyline
 90
        2
 70
   128
 43
0.000000000000000
 38
100.000000000000000
 10
6477000.000000000000000
 20
5751347.500000000000000
 42
0.000000000000000
 10
6477000.000000000000000
 20
5751352.500000000000000
 42
0.000000000000000
  0
LWPOLYLINE
  5
30DE3
100
AcDbEntity
  8
0
  6
CONTINUOUS
 62
     7
 48
1.000000000000000
370
    13
100
AcDbPolyline
 90
        2
 70
   128
 43
0.000000000000000
 38
100.000000000000000
 10
6477000.000000000000000
 20
5751397.500000000000000
 42
0.000000000000000
 10
6477000.000000000000000
 20
5751402.500000000000000
 42
0.000000000000000
  0
LWPOLYLINE
  5
30DE4
100
AcDbEntity
  8
0
  6
CONTINUOUS
 62
     7
 48
1.000000000000000
370
    13
100
AcDbPolyline
 90
        2
 70
   128
 43
0.000000000000000
 38
100.000000000000000
 10
6477050.000000000000000
 20
5751347.500000000000000
 42
0.000000000000000
 10
6477050.000000000000000
 20
5751352.500000000000000
 42
0.000000000000000
  0
LWPOLYLINE
  5
30DE5
100
AcDbEntity
  8
0
  6
CONTINUOUS
 62
     7
 48
1.000000000000000
370
    13
100
AcDbPolyline
 90
        2
 70
   128
 43
0.000000000000000
 38
100.000000000000000
 10
6477050.000000000000000
 20
5751397.500000000000000
 42
0.000000000000000
 10
6477050.000000000000000
 20
5751402.500000000000000
 42
0.000000000000000
  0
LWPOLYLINE
  5
30DE6
100
AcDbEntity
  8
0
  6
CONTINUOUS
 62
     7
 48
1.000000000000000
370
    13
100
AcDbPolyline
 90
        2
 70
   128
 43
0.000000000000000
 38
100.000000000000000
 10
6477100.000000000000000
 20
5751297.500000000000000
 42
0.000000000000000
 10
6477100.000000000000000
 20
5751302.500000000000000
 42
0.000000000000000
  0
LWPOLYLINE
  5
30DE7
100
AcDbEntity
  8
0
  6
CONTINUOUS
 62
     7
 48
1.000000000000000
370
    13
100
AcDbPolyline
 90
        2
 70
   128
 43
0.000000000000000
 38
100.000000000000000
 10
6477100.000000000000000
 20
5751347.500000000000000
 42
0.000000000000000
 10
6477100.000000000000000
 20
5751352.500000000000000
 42
0.000000000000000
  0
LWPOLYLINE
  5
30DE8
100
AcDbEntity
  8
0
  6
CONTINUOUS
 62
     7
 48
1.000000000000000
370
    13
100
AcDbPolyline
 90
        2
 70
   128
 43
0.000000000000000
 38
100.000000000000000
 10
6477100.000000000000000
 20
5751397.500000000000000
 42
0.000000000000000
 10
6477100.000000000000000
 20
5751402.500000000000000
 42
0.000000000000000
  0
VIEWPORT
  5
88
330
16
100
AcDbEntity
 67
     1
  8
0
100
AcDbViewport
 10
585.5610151567264
 20
426.20567920253
 30
0.0
 40
1444.277333333333
 41
889.778
 68
     1
 69
     1
 12
585.5610151567264
 22
426.20567920253
 13
0.0
 23
0.0
 14
0.5
 24
0.5
 15
0.5
 25
0.5
 16
0.0
 26
0.0
 36
1.0
 17
0.0
 27
0.0
 37
0.0
 42
50.0
 43
0.0
 44
0.0
 45
889.778
 50
0.0
 51
0.0
 72
   100
 90
    32800
  1

281
     0
 71
     1
 74
     0
110
0.0
120
0.0
130
0.0
111
1.0
121
0.0
131
0.0
112
0.0
122
1.0
132
0.0
 79
     0
146
0.0
170
     0
  0
VIEWPORT
  5
192
330
16
100
AcDbEntity
 67
     1
  8
0
100
AcDbViewport
 10
138.4220328847746
 20
95.33890285778046
 30
0.0
 40
259.080019569397
 41
167.6400049209595
 68
     2
 69
     2
 12
6.0
 22
4.5
 13
0.0
 23
0.0
 14
0.5
 24
0.5
 15
0.5
 25
0.5
 16
0.0
 26
0.0
 36
1.0
 17
0.0
 27
0.0
 37
0.0
 42
50.0
 43
0.0
 44
0.0
 45
9.094736842105263
 50
0.0
 51
0.0
 72
   100
 90
    32768
  1

281
     0
 71
     1
 74
     0
110
0.0
120
0.0
130
0.0
111
1.0
121
0.0
131
0.0
112
0.0
122
1.0
132
0.0
 79
     0
146
0.0
170
     0
  0
ENDSEC
  0
SECTION
  2
OBJECTS
  0
DICTIONARY
  5
C
330
0
100
AcDbDictionary
281
     1
  3
ACAD_COLOR
350
1AC
  3
ACAD_GROUP
350
D
  3
ACAD_LAYOUT
350
8D
  3
ACAD_MATERIAL
350
1AB
  3
ACAD_MLINESTYLE
350
E
  3
ACAD_PLOTSETTINGS
350
8E
  3
ACAD_PLOTSTYLENAME
350
8B
  3
ACAD_TABLESTYLE
350
1AD
  3
AcDbVariableDictionary
350
A5
  0
DICTIONARY
  5
1C7
330
2
100
AcDbDictionary
280
     1
281
     1
  3
ACAD_LAYERSTATES
360
1C8
  0
DICTIONARY
  5
1AC
102
{ACAD_REACTORS
330
C
102
}
330
C
100
AcDbDictionary
281
     1
  0
DICTIONARY
  5
D
102
{ACAD_REACTORS
330
C
102
}
330
C
100
AcDbDictionary
281
     1
  0
DICTIONARY
  5
8D
102
{ACAD_REACTORS
330
C
102
}
330
C
100
AcDbDictionary
281
     1
  3
Arkusz1
350
90
  3
Model
350
8F
  0
DICTIONARY
  5
1AB
102
{ACAD_REACTORS
330
C
102
}
330
C
100
AcDbDictionary
281
     1
  0
DICTIONARY
  5
E
102
{ACAD_REACTORS
330
C
102
}
330
C
100
AcDbDictionary
281
     1
  3
STANDARD
350
1C
  0
DICTIONARY
  5
8E
102
{ACAD_REACTORS
330
C
102
}
330
C
100
AcDbDictionary
281
     1
  0
ACDBDICTIONARYWDFLT
  5
8B
102
{ACAD_REACTORS
330
C
102
}
330
C
100
AcDbDictionary
281
     1
  3
Normal
350
8C
100
AcDbDictionaryWithDefault
340
8C
  0
DICTIONARY
  5
1AD
102
{ACAD_REACTORS
330
C
102
}
330
C
100
AcDbDictionary
281
     1
  3
Standard
350
1AE
  0
DICTIONARY
  5
A5
102
{ACAD_REACTORS
330
C
102
}
330
C
100
AcDbDictionary
281
     1
  3
CTABLESTYLE
350
1DE
  3
DIMASSOC
350
A6
  0
DICTIONARY
  5
1C8
102
{ACAD_REACTORS
330
1C7
102
}
330
1C7
100
AcDbDictionary
281
     1
  0
LAYOUT
  5
90
102
{ACAD_XDICTIONARY
360
1CA
102
}
102
{ACAD_REACTORS
330
8D
102
}
330
8D
100
AcDbPlotSettings
  1

  2
DWF6 ePlot.pc3
  4
ISO_A0_(841.00_x_1189.00_MM)
  6

 40
5.793749809265136
 41
17.79375076293945
 42
5.79376220703125
 43
17.793701171875
 44
841.0
 45
1189.0
 46
0.0
 47
0.0
 48
0.0
 49
0.0
140
0.0
141
0.0
142
1.0
143
1.0
 70
   696
 72
     1
 73
     1
 74
     1
  7
acad.ctb
 75
    16
147
1.0
 76
     2
 77
     2
 78
   300
148
-8.854716328601398
149
-11.4994290117952
100
AcDbLayout
  1
Arkusz1
 70
     0
 71
     1
 10
-8.938984843273601
 20
5.705679202530063
 11
1180.061015156726
 21
846.7056792025299
 12
0.0
 22
0.0
 32
0.0
 14
8.882023100076139
 24
11.51890039730071
 34
0.0
 15
267.9620426694731
 25
179.1589053182602
 35
0.0
146
0.0
 13
0.0
 23
0.0
 33
0.0
 16
1.0
 26
0.0
 36
0.0
 17
0.0
 27
1.0
 37
0.0
 76
     0
330
16
331
88
1001
ACAD_PSEXT
1000
DWF6 ePlot.pc3
1000
DWF6 ePlot
1000
Plik
1000

1070
     0
  0
LAYOUT
  5
8F
102
{ACAD_REACTORS
330
8D
102
}
330
8D
100
AcDbPlotSettings
  1

  2
DWF6 ePlot.pc3
  4
ISO_full_bleed_A0_(841.00_x_1189.00_MM)
  6

 40
0.7937499880790711
 41
0.7937499880790711
 42
0.79376220703125
 43
0.793701171875
 44
841.0
 45
1189.0
 46
0.0
 47
0.0
 48
0.0
 49
0.0
140
0.0
141
0.0
142
1.0
143
1.0
 70
 11952
 72
     1
 73
     1
 74
     2
  7
acad.ctb
 75
    16
147
1.0
 76
     0
 77
     2
 78
   300
148
0.0
149
0.0
100
AcDbLayout
  1
Model
 70
     1
 71
     0
 10
0.0
 20
0.0
 11
12.0
 21
9.0
 12
0.0
 22
0.0
 32
0.0
 14
0.0
 24
0.0
 34
0.0
 15
0.0
 25
0.0
 35
0.0
146
0.0
 13
0.0
 23
0.0
 33
0.0
 16
1.0
 26
0.0
 36
0.0
 17
0.0
 27
1.0
 37
0.0
 76
     0
330
19
1001
ACAD_PSEXT
1000
DWF6 ePlot.pc3
1000
DWF6 ePlot
1000
Plik
1000

1070
     0
  0
MLINESTYLE
  5
1C
102
{ACAD_REACTORS
330
E
102
}
330
E
100
AcDbMlineStyle
  2
STANDARD
 70
     0
  3

 62
     0
 51
90.0
 52
90.0
 71
     2
 49
0.5
 62
   256
  6
BYLAYER
 49
-0.5
 62
   256
  6
BYLAYER
  0
ACDBPLACEHOLDER
  5
8C
102
{ACAD_REACTORS
330
8B
102
}
330
8B
  0
TABLESTYLE
  5
1AE
102
{ACAD_REACTORS
330
1AD
102
}
330
1AD
100
AcDbTableStyle
  3
Standard
 70
     0
 71
     0
 40
0.06
 41
0.06
280
     0
281
     0
  7
STANDARD
140
0.18
170
     2
 62
     0
 63
     7
283
     0
274
    -2
284
     1
 64
     0
275
    -2
285
     1
 65
     0
276
    -2
286
     1
 66
     0
277
    -2
287
     1
 67
     0
278
    -2
288
     1
 68
     0
279
    -2
289
     1
 69
     0
  7
STANDARD
140
0.25
170
     5
 62
     0
 63
     7
283
     0
274
    -2
284
     1
 64
     0
275
    -2
285
     1
 65
     0
276
    -2
286
     1
 66
     0
277
    -2
287
     1
 67
     0
278
    -2
288
     1
 68
     0
279
    -2
289
     1
 69
     0
  7
STANDARD
140
0.18
170
     5
 62
     0
 63
     7
283
     0
274
    -2
284
     1
 64
     0
275
    -2
285
     1
 65
     0
276
    -2
286
     1
 66
     0
277
    -2
287
     1
 67
     0
278
    -2
288
     1
 68
     0
279
    -2
289
     1
 69
     0
  0
DICTIONARYVAR
  5
1DE
102
{ACAD_REACTORS
330
A5
102
}
330
A5
100
DictionaryVariables
280
     0
  1
STANDARD
  0
DICTIONARYVAR
  5
A6
102
{ACAD_REACTORS
330
A5
102
}
330
A5
100
DictionaryVariables
280
     0
  1
1
  0
DICTIONARY
  5
1CA
330
90
100
AcDbDictionary
280
     1
281
     1
  3
ADSK_XREC_LAYOUTTHUMBNAIL
360
1CB
  0
ENDSEC
  0
EOF
